  0
SECTION
  2
HEADER
  9
$ANGBASE
  50
0.0
  9
$ANGDIR
  70
1
  9
$MEASUREMENT
  70
0
  0
ENDSEC
  0
SECTION
  2
TABLES
  0
TABLE
  2
LTYPE
  70
4
  0
LTYPE
  5
40F
  2
CONTINUOUS
  70
0
  3
Solid line
  72
65
  73
0
  40
0.0
  0
LTYPE
  5
410
  2
DASHDOT
 70
0
  3
Dash Dot ____ _ ____ _
 72
65
 73
4
 40
2.0
 49
1.25
 49
-0.25
 49
0.25
 49
-0.25
  0
LTYPE
  5
411
  2
DASHED
 70
0
  3
Dashed __ __ __ __ __
 72
65
 73
2
 40
0.75
 49
0.5
 49
-0.25
  0
LTYPE
  5
43B
  2
DOTTED
 70
0
  3
Dotted .  .  .  .
 72
65
 73
2
 40
0.2
 49
0.0
 49
-0.2
  0
ENDTAB
  0
TABLE
  2
STYLE
  70
4
  0
STYLE
  2
KICAD
  70
0
  40
0
  41
1
  42
1
  50
0
  71
0
  3
isocp.shx
  0
STYLE
  2
KICADB
  70
0
  40
0
  41
1
  42
1
  50
0
  71
0
  3
isocp.shx
  0
STYLE
  2
KICADI
  70
0
  40
0
  41
1
  42
1
  50
15
  71
0
  3
isocp.shx
  0
STYLE
  2
KICADBI
  70
0
  40
0
  41
1
  42
1
  50
15
  71
0
  3
isocp.shx
  0
ENDTAB
  0
TABLE
  2
LAYER
  70
1
  0
LAYER
  2
BLACK
  70
0
  62
7
  6
CONTINUOUS
  0
ENDTAB
  0
ENDSEC
  0
SECTION
  2
ENTITIES
0
LINE
8
BLACK
6
CONTINUOUS
10
5.9166
20
-2.26406
11
6.23675
21
-2.26439
0
LINE
8
BLACK
6
CONTINUOUS
10
6.23675
20
-2.26439
11
6.23717
21
-2.26441
0
LINE
8
BLACK
6
CONTINUOUS
10
6.23717
20
-2.26441
11
6.24052
21
-2.2647
0
LINE
8
BLACK
6
CONTINUOUS
10
6.24052
20
-2.2647
11
6.24057
21
-2.26471
0
LINE
8
BLACK
6
CONTINUOUS
10
6.24057
20
-2.26471
11
6.241
21
-2.26475
0
LINE
8
BLACK
6
CONTINUOUS
10
6.241
20
-2.26475
11
6.24359
21
-2.26501
0
LINE
8
BLACK
6
CONTINUOUS
10
6.24359
20
-2.26501
11
6.24439
21
-2.26515
0
LINE
8
BLACK
6
CONTINUOUS
10
6.24439
20
-2.26515
11
6.24763
21
-2.26602
0
LINE
8
BLACK
6
CONTINUOUS
10
6.24763
20
-2.26602
11
6.24779
21
-2.26606
0
LINE
8
BLACK
6
CONTINUOUS
10
6.24779
20
-2.26606
11
6.25066
21
-2.26693
0
LINE
8
BLACK
6
CONTINUOUS
10
6.25066
20
-2.26693
11
6.25132
21
-2.26719
0
LINE
8
BLACK
6
CONTINUOUS
10
6.25132
20
-2.26719
11
6.2528
21
-2.26788
0
LINE
8
BLACK
6
CONTINUOUS
10
6.2528
20
-2.26788
11
6.25436
21
-2.2686
0
LINE
8
BLACK
6
CONTINUOUS
10
6.25436
20
-2.2686
11
6.2546
21
-2.26872
0
LINE
8
BLACK
6
CONTINUOUS
10
6.2546
20
-2.26872
11
6.25724
21
-2.27014
0
LINE
8
BLACK
6
CONTINUOUS
10
6.25724
20
-2.27014
11
6.25775
21
-2.27045
0
LINE
8
BLACK
6
CONTINUOUS
10
6.25775
20
-2.27045
11
6.2605
21
-2.27237
0
LINE
8
BLACK
6
CONTINUOUS
10
6.2605
20
-2.27237
11
6.2608
21
-2.2726
0
LINE
8
BLACK
6
CONTINUOUS
10
6.2608
20
-2.2726
11
6.26092
21
-2.2727
0
LINE
8
BLACK
6
CONTINUOUS
10
6.26092
20
-2.2727
11
6.26312
21
-2.2745
0
LINE
8
BLACK
6
CONTINUOUS
10
6.26312
20
-2.2745
11
6.26348
21
-2.27483
0
LINE
8
BLACK
6
CONTINUOUS
10
6.26348
20
-2.27483
11
6.26585
21
-2.2772
0
LINE
8
BLACK
6
CONTINUOUS
10
6.26585
20
-2.2772
11
6.26618
21
-2.27756
0
LINE
8
BLACK
6
CONTINUOUS
10
6.26618
20
-2.27756
11
6.26808
21
-2.27988
0
LINE
8
BLACK
6
CONTINUOUS
10
6.26808
20
-2.27988
11
6.26831
21
-2.28018
0
LINE
8
BLACK
6
CONTINUOUS
10
6.26831
20
-2.28018
11
6.27023
21
-2.28293
0
LINE
8
BLACK
6
CONTINUOUS
10
6.27023
20
-2.28293
11
6.27054
21
-2.28344
0
LINE
8
BLACK
6
CONTINUOUS
10
6.27054
20
-2.28344
11
6.27196
21
-2.28608
0
LINE
8
BLACK
6
CONTINUOUS
10
6.27196
20
-2.28608
11
6.27208
21
-2.28632
0
LINE
8
BLACK
6
CONTINUOUS
10
6.27208
20
-2.28632
11
6.27264
21
-2.28752
0
LINE
8
BLACK
6
CONTINUOUS
10
6.27264
20
-2.28752
11
6.2735
21
-2.28936
0
LINE
8
BLACK
6
CONTINUOUS
10
6.2735
20
-2.28936
11
6.27375
21
-2.29002
0
LINE
8
BLACK
6
CONTINUOUS
10
6.27375
20
-2.29002
11
6.27462
21
-2.29289
0
LINE
8
BLACK
6
CONTINUOUS
10
6.27462
20
-2.29289
11
6.27466
21
-2.29305
0
LINE
8
BLACK
6
CONTINUOUS
10
6.27466
20
-2.29305
11
6.27553
21
-2.29629
0
LINE
8
BLACK
6
CONTINUOUS
10
6.27553
20
-2.29629
11
6.27568
21
-2.29709
0
LINE
8
BLACK
6
CONTINUOUS
10
6.27568
20
-2.29709
11
6.27597
21
-2.30011
0
LINE
8
BLACK
6
CONTINUOUS
10
6.27597
20
-2.30011
11
6.27598
21
-2.30015
0
LINE
8
BLACK
6
CONTINUOUS
10
6.27598
20
-2.30015
11
6.27626
21
-2.30339
0
LINE
8
BLACK
6
CONTINUOUS
10
6.27626
20
-2.30339
11
6.27627
21
-2.30351
0
LINE
8
BLACK
6
CONTINUOUS
10
6.27627
20
-2.30351
11
6.27629
21
-2.30394
0
LINE
8
BLACK
6
CONTINUOUS
10
6.27629
20
-2.30394
11
6.27629
21
-2.38213
0
LINE
8
BLACK
6
CONTINUOUS
10
6.27629
20
-2.38213
11
6.27626
21
-2.38246
0
LINE
8
BLACK
6
CONTINUOUS
10
6.27626
20
-2.38246
11
6.27614
21
-2.38246
0
LINE
8
BLACK
6
CONTINUOUS
10
6.27614
20
-2.38246
11
6.27674
21
-2.38933
0
LINE
8
BLACK
6
CONTINUOUS
10
6.27674
20
-2.38933
11
6.27853
21
-2.39599
0
LINE
8
BLACK
6
CONTINUOUS
10
6.27853
20
-2.39599
11
6.28144
21
-2.40224
0
LINE
8
BLACK
6
CONTINUOUS
10
6.28144
20
-2.40224
11
6.28156
21
-2.40242
0
LINE
8
BLACK
6
CONTINUOUS
10
6.28156
20
-2.40242
11
6.28156
21
-2.40242
0
LINE
8
BLACK
6
CONTINUOUS
10
6.28156
20
-2.40242
11
6.2842
21
-2.40618
0
LINE
8
BLACK
6
CONTINUOUS
10
6.2842
20
-2.40618
11
6.2854
21
-2.40789
0
LINE
8
BLACK
6
CONTINUOUS
10
6.2854
20
-2.40789
11
6.29027
21
-2.41277
0
LINE
8
BLACK
6
CONTINUOUS
10
6.29027
20
-2.41277
11
6.29592
21
-2.41672
0
LINE
8
BLACK
6
CONTINUOUS
10
6.29592
20
-2.41672
11
6.29612
21
-2.41681
0
LINE
8
BLACK
6
CONTINUOUS
10
6.29612
20
-2.41681
11
6.29612
21
-2.41681
0
LINE
8
BLACK
6
CONTINUOUS
10
6.29612
20
-2.41681
11
6.29925
21
-2.41827
0
LINE
8
BLACK
6
CONTINUOUS
10
6.29925
20
-2.41827
11
6.30217
21
-2.41964
0
LINE
8
BLACK
6
CONTINUOUS
10
6.30217
20
-2.41964
11
6.30238
21
-2.41969
0
LINE
8
BLACK
6
CONTINUOUS
10
6.30238
20
-2.41969
11
6.30238
21
-2.41969
0
LINE
8
BLACK
6
CONTINUOUS
10
6.30238
20
-2.41969
11
6.30862
21
-2.42136
0
LINE
8
BLACK
6
CONTINUOUS
10
6.30862
20
-2.42136
11
6.30862
21
-2.42137
0
LINE
8
BLACK
6
CONTINUOUS
10
6.30862
20
-2.42137
11
6.30883
21
-2.42142
0
LINE
8
BLACK
6
CONTINUOUS
10
6.30883
20
-2.42142
11
6.3157
21
-2.42202
0
LINE
8
BLACK
6
CONTINUOUS
10
6.3157
20
-2.42202
11
6.3157
21
-2.42189
0
LINE
8
BLACK
6
CONTINUOUS
10
6.3157
20
-2.42189
11
6.31592
21
-2.42187
0
LINE
8
BLACK
6
CONTINUOUS
10
6.31592
20
-2.42187
11
6.63514
21
-2.42187
0
LINE
8
BLACK
6
CONTINUOUS
10
6.63514
20
-2.42187
11
6.9454
21
-2.42187
0
LINE
8
BLACK
6
CONTINUOUS
10
6.9454
20
-2.42187
11
6.94584
21
-2.42189
0
LINE
8
BLACK
6
CONTINUOUS
10
6.94584
20
-2.42189
11
6.94918
21
-2.42218
0
LINE
8
BLACK
6
CONTINUOUS
10
6.94918
20
-2.42218
11
6.94923
21
-2.42219
0
LINE
8
BLACK
6
CONTINUOUS
10
6.94923
20
-2.42219
11
6.95226
21
-2.42249
0
LINE
8
BLACK
6
CONTINUOUS
10
6.95226
20
-2.42249
11
6.95305
21
-2.42263
0
LINE
8
BLACK
6
CONTINUOUS
10
6.95305
20
-2.42263
11
6.95629
21
-2.4235
0
LINE
8
BLACK
6
CONTINUOUS
10
6.95629
20
-2.4235
11
6.95645
21
-2.42354
0
LINE
8
BLACK
6
CONTINUOUS
10
6.95645
20
-2.42354
11
6.95932
21
-2.42442
0
LINE
8
BLACK
6
CONTINUOUS
10
6.95932
20
-2.42442
11
6.95998
21
-2.42467
0
LINE
8
BLACK
6
CONTINUOUS
10
6.95998
20
-2.42467
11
6.96302
21
-2.42608
0
LINE
8
BLACK
6
CONTINUOUS
10
6.96302
20
-2.42608
11
6.96326
21
-2.42621
0
LINE
8
BLACK
6
CONTINUOUS
10
6.96326
20
-2.42621
11
6.96591
21
-2.42762
0
LINE
8
BLACK
6
CONTINUOUS
10
6.96591
20
-2.42762
11
6.96641
21
-2.42793
0
LINE
8
BLACK
6
CONTINUOUS
10
6.96641
20
-2.42793
11
6.96916
21
-2.42986
0
LINE
8
BLACK
6
CONTINUOUS
10
6.96916
20
-2.42986
11
6.96946
21
-2.43008
0
LINE
8
BLACK
6
CONTINUOUS
10
6.96946
20
-2.43008
11
6.97178
21
-2.43198
0
LINE
8
BLACK
6
CONTINUOUS
10
6.97178
20
-2.43198
11
6.97214
21
-2.43231
0
LINE
8
BLACK
6
CONTINUOUS
10
6.97214
20
-2.43231
11
6.97451
21
-2.43468
0
LINE
8
BLACK
6
CONTINUOUS
10
6.97451
20
-2.43468
11
6.97484
21
-2.43505
0
LINE
8
BLACK
6
CONTINUOUS
10
6.97484
20
-2.43505
11
6.97674
21
-2.43736
0
LINE
8
BLACK
6
CONTINUOUS
10
6.97674
20
-2.43736
11
6.97697
21
-2.43766
0
LINE
8
BLACK
6
CONTINUOUS
10
6.97697
20
-2.43766
11
6.97889
21
-2.44041
0
LINE
8
BLACK
6
CONTINUOUS
10
6.97889
20
-2.44041
11
6.9792
21
-2.44092
0
LINE
8
BLACK
6
CONTINUOUS
10
6.9792
20
-2.44092
11
6.98062
21
-2.44356
0
LINE
8
BLACK
6
CONTINUOUS
10
6.98062
20
-2.44356
11
6.98074
21
-2.4438
0
LINE
8
BLACK
6
CONTINUOUS
10
6.98074
20
-2.4438
11
6.98216
21
-2.44685
0
LINE
8
BLACK
6
CONTINUOUS
10
6.98216
20
-2.44685
11
6.98241
21
-2.4475
0
LINE
8
BLACK
6
CONTINUOUS
10
6.98241
20
-2.4475
11
6.98328
21
-2.45037
0
LINE
8
BLACK
6
CONTINUOUS
10
6.98328
20
-2.45037
11
6.98332
21
-2.45053
0
LINE
8
BLACK
6
CONTINUOUS
10
6.98332
20
-2.45053
11
6.98419
21
-2.45377
0
LINE
8
BLACK
6
CONTINUOUS
10
6.98419
20
-2.45377
11
6.98434
21
-2.45457
0
LINE
8
BLACK
6
CONTINUOUS
10
6.98434
20
-2.45457
11
6.98463
21
-2.45758
0
LINE
8
BLACK
6
CONTINUOUS
10
6.98463
20
-2.45758
11
6.98464
21
-2.45764
0
LINE
8
BLACK
6
CONTINUOUS
10
6.98464
20
-2.45764
11
6.9849
21
-2.46062
0
LINE
8
BLACK
6
CONTINUOUS
10
6.9849
20
-2.46062
11
6.98488
21
-2.4612
0
LINE
8
BLACK
6
CONTINUOUS
10
6.98488
20
-2.4612
11
6.9848
21
-2.4612
0
LINE
8
BLACK
6
CONTINUOUS
10
6.9848
20
-2.4612
11
6.9854
21
-2.46807
0
LINE
8
BLACK
6
CONTINUOUS
10
6.9854
20
-2.46807
11
6.98719
21
-2.47473
0
LINE
8
BLACK
6
CONTINUOUS
10
6.98719
20
-2.47473
11
6.98728
21
-2.47493
0
LINE
8
BLACK
6
CONTINUOUS
10
6.98728
20
-2.47493
11
6.98971
21
-2.48015
0
LINE
8
BLACK
6
CONTINUOUS
10
6.98971
20
-2.48015
11
6.9901
21
-2.48098
0
LINE
8
BLACK
6
CONTINUOUS
10
6.9901
20
-2.48098
11
6.99023
21
-2.48116
0
LINE
8
BLACK
6
CONTINUOUS
10
6.99023
20
-2.48116
11
6.99023
21
-2.48116
0
LINE
8
BLACK
6
CONTINUOUS
10
6.99023
20
-2.48116
11
6.99333
21
-2.48559
0
LINE
8
BLACK
6
CONTINUOUS
10
6.99333
20
-2.48559
11
6.99406
21
-2.48663
0
LINE
8
BLACK
6
CONTINUOUS
10
6.99406
20
-2.48663
11
6.99893
21
-2.49151
0
LINE
8
BLACK
6
CONTINUOUS
10
6.99893
20
-2.49151
11
7.00458
21
-2.49546
0
LINE
8
BLACK
6
CONTINUOUS
10
7.00458
20
-2.49546
11
7.01083
21
-2.49838
0
LINE
8
BLACK
6
CONTINUOUS
10
7.01083
20
-2.49838
11
7.01104
21
-2.49843
0
LINE
8
BLACK
6
CONTINUOUS
10
7.01104
20
-2.49843
11
7.01104
21
-2.49843
0
LINE
8
BLACK
6
CONTINUOUS
10
7.01104
20
-2.49843
11
7.01416
21
-2.49927
0
LINE
8
BLACK
6
CONTINUOUS
10
7.01416
20
-2.49927
11
7.01749
21
-2.50016
0
LINE
8
BLACK
6
CONTINUOUS
10
7.01749
20
-2.50016
11
7.02003
21
-2.50038
0
LINE
8
BLACK
6
CONTINUOUS
10
7.02003
20
-2.50038
11
7.02367
21
-2.5007
0
LINE
8
BLACK
6
CONTINUOUS
10
7.02367
20
-2.5007
11
7.02436
21
-2.50076
0
LINE
8
BLACK
6
CONTINUOUS
10
7.02436
20
-2.50076
11
7.02436
21
-2.50063
0
LINE
8
BLACK
6
CONTINUOUS
10
7.02436
20
-2.50063
11
7.02458
21
-2.50061
0
LINE
8
BLACK
6
CONTINUOUS
10
7.02458
20
-2.50061
11
7.34363
21
-2.50061
0
LINE
8
BLACK
6
CONTINUOUS
10
7.34363
20
-2.50061
11
7.65407
21
-2.50061
0
LINE
8
BLACK
6
CONTINUOUS
10
7.65407
20
-2.50061
11
7.6545
21
-2.50063
0
LINE
8
BLACK
6
CONTINUOUS
10
7.6545
20
-2.50063
11
7.65784
21
-2.50092
0
LINE
8
BLACK
6
CONTINUOUS
10
7.65784
20
-2.50092
11
7.6579
21
-2.50093
0
LINE
8
BLACK
6
CONTINUOUS
10
7.6579
20
-2.50093
11
7.6604
21
-2.50117
0
LINE
8
BLACK
6
CONTINUOUS
10
7.6604
20
-2.50117
11
7.66092
21
-2.50123
0
LINE
8
BLACK
6
CONTINUOUS
10
7.66092
20
-2.50123
11
7.66171
21
-2.50137
0
LINE
8
BLACK
6
CONTINUOUS
10
7.66171
20
-2.50137
11
7.66496
21
-2.50224
0
LINE
8
BLACK
6
CONTINUOUS
10
7.66496
20
-2.50224
11
7.66511
21
-2.50228
0
LINE
8
BLACK
6
CONTINUOUS
10
7.66511
20
-2.50228
11
7.66798
21
-2.50315
0
LINE
8
BLACK
6
CONTINUOUS
10
7.66798
20
-2.50315
11
7.66864
21
-2.50341
0
LINE
8
BLACK
6
CONTINUOUS
10
7.66864
20
-2.50341
11
7.66968
21
-2.50389
0
LINE
8
BLACK
6
CONTINUOUS
10
7.66968
20
-2.50389
11
7.67168
21
-2.50482
0
LINE
8
BLACK
6
CONTINUOUS
10
7.67168
20
-2.50482
11
7.67192
21
-2.50495
0
LINE
8
BLACK
6
CONTINUOUS
10
7.67192
20
-2.50495
11
7.67457
21
-2.50636
0
LINE
8
BLACK
6
CONTINUOUS
10
7.67457
20
-2.50636
11
7.67507
21
-2.50667
0
LINE
8
BLACK
6
CONTINUOUS
10
7.67507
20
-2.50667
11
7.67782
21
-2.50859
0
LINE
8
BLACK
6
CONTINUOUS
10
7.67782
20
-2.50859
11
7.67812
21
-2.50882
0
LINE
8
BLACK
6
CONTINUOUS
10
7.67812
20
-2.50882
11
7.68044
21
-2.51072
0
LINE
8
BLACK
6
CONTINUOUS
10
7.68044
20
-2.51072
11
7.6808
21
-2.51105
0
LINE
8
BLACK
6
CONTINUOUS
10
7.6808
20
-2.51105
11
7.68317
21
-2.51342
0
LINE
8
BLACK
6
CONTINUOUS
10
7.68317
20
-2.51342
11
7.6835
21
-2.51378
0
LINE
8
BLACK
6
CONTINUOUS
10
7.6835
20
-2.51378
11
7.68513
21
-2.51577
0
LINE
8
BLACK
6
CONTINUOUS
10
7.68513
20
-2.51577
11
7.6854
21
-2.5161
0
LINE
8
BLACK
6
CONTINUOUS
10
7.6854
20
-2.5161
11
7.68563
21
-2.5164
0
LINE
8
BLACK
6
CONTINUOUS
10
7.68563
20
-2.5164
11
7.68756
21
-2.51915
0
LINE
8
BLACK
6
CONTINUOUS
10
7.68756
20
-2.51915
11
7.68787
21
-2.51966
0
LINE
8
BLACK
6
CONTINUOUS
10
7.68787
20
-2.51966
11
7.68928
21
-2.5223
0
LINE
8
BLACK
6
CONTINUOUS
10
7.68928
20
-2.5223
11
7.6894
21
-2.52254
0
LINE
8
BLACK
6
CONTINUOUS
10
7.6894
20
-2.52254
11
7.69082
21
-2.52558
0
LINE
8
BLACK
6
CONTINUOUS
10
7.69082
20
-2.52558
11
7.69107
21
-2.52624
0
LINE
8
BLACK
6
CONTINUOUS
10
7.69107
20
-2.52624
11
7.69194
21
-2.52911
0
LINE
8
BLACK
6
CONTINUOUS
10
7.69194
20
-2.52911
11
7.69199
21
-2.52927
0
LINE
8
BLACK
6
CONTINUOUS
10
7.69199
20
-2.52927
11
7.69285
21
-2.53251
0
LINE
8
BLACK
6
CONTINUOUS
10
7.69285
20
-2.53251
11
7.693
21
-2.53331
0
LINE
8
BLACK
6
CONTINUOUS
10
7.693
20
-2.53331
11
7.69329
21
-2.53631
0
LINE
8
BLACK
6
CONTINUOUS
10
7.69329
20
-2.53631
11
7.6933
21
-2.53637
0
LINE
8
BLACK
6
CONTINUOUS
10
7.6933
20
-2.53637
11
7.69359
21
-2.53973
0
LINE
8
BLACK
6
CONTINUOUS
10
7.69359
20
-2.53973
11
7.69361
21
-2.54016
0
LINE
8
BLACK
6
CONTINUOUS
10
7.69361
20
-2.54016
11
7.69361
21
-4.17379
0
LINE
8
BLACK
6
CONTINUOUS
10
7.69361
20
-4.17379
11
7.69361
21
-4.5079
0
LINE
8
BLACK
6
CONTINUOUS
10
7.69361
20
-4.5079
11
7.69355
21
-4.50844
0
LINE
8
BLACK
6
CONTINUOUS
10
7.69355
20
-4.50844
11
7.69346
21
-4.50844
0
LINE
8
BLACK
6
CONTINUOUS
10
7.69346
20
-4.50844
11
7.69348
21
-4.50905
0
LINE
8
BLACK
6
CONTINUOUS
10
7.69348
20
-4.50905
11
7.69348
21
-4.50905
0
LINE
8
BLACK
6
CONTINUOUS
10
7.69348
20
-4.50905
11
7.69354
21
-4.51086
0
LINE
8
BLACK
6
CONTINUOUS
10
7.69354
20
-4.51086
11
7.69378
21
-4.5183
0
LINE
8
BLACK
6
CONTINUOUS
10
7.69378
20
-4.5183
11
7.69538
21
-4.52803
0
LINE
8
BLACK
6
CONTINUOUS
10
7.69538
20
-4.52803
11
7.69542
21
-4.52818
0
LINE
8
BLACK
6
CONTINUOUS
10
7.69542
20
-4.52818
11
7.69542
21
-4.52818
0
LINE
8
BLACK
6
CONTINUOUS
10
7.69542
20
-4.52818
11
7.6972
21
-4.53409
0
LINE
8
BLACK
6
CONTINUOUS
10
7.6972
20
-4.53409
11
7.69821
21
-4.53747
0
LINE
8
BLACK
6
CONTINUOUS
10
7.69821
20
-4.53747
11
7.70224
21
-4.54647
0
LINE
8
BLACK
6
CONTINUOUS
10
7.70224
20
-4.54647
11
7.70233
21
-4.54661
0
LINE
8
BLACK
6
CONTINUOUS
10
7.70233
20
-4.54661
11
7.70233
21
-4.54661
0
LINE
8
BLACK
6
CONTINUOUS
10
7.70233
20
-4.54661
11
7.7065
21
-4.55342
0
LINE
8
BLACK
6
CONTINUOUS
10
7.7065
20
-4.55342
11
7.7074
21
-4.55488
0
LINE
8
BLACK
6
CONTINUOUS
10
7.7074
20
-4.55488
11
7.71359
21
-4.56255
0
LINE
8
BLACK
6
CONTINUOUS
10
7.71359
20
-4.56255
11
7.71371
21
-4.56266
0
LINE
8
BLACK
6
CONTINUOUS
10
7.71371
20
-4.56266
11
7.72061
21
-4.56925
0
LINE
8
BLACK
6
CONTINUOUS
10
7.72061
20
-4.56925
11
7.72061
21
-4.56925
0
LINE
8
BLACK
6
CONTINUOUS
10
7.72061
20
-4.56925
11
7.72072
21
-4.56936
0
LINE
8
BLACK
6
CONTINUOUS
10
7.72072
20
-4.56936
11
7.72151
21
-4.56994
0
LINE
8
BLACK
6
CONTINUOUS
10
7.72151
20
-4.56994
11
7.72855
21
-4.5751
0
LINE
8
BLACK
6
CONTINUOUS
10
7.72855
20
-4.5751
11
7.72855
21
-4.5751
0
LINE
8
BLACK
6
CONTINUOUS
10
7.72855
20
-4.5751
11
7.72867
21
-4.5752
0
LINE
8
BLACK
6
CONTINUOUS
10
7.72867
20
-4.5752
11
7.72881
21
-4.57527
0
LINE
8
BLACK
6
CONTINUOUS
10
7.72881
20
-4.57527
11
7.72881
21
-4.57527
0
LINE
8
BLACK
6
CONTINUOUS
10
7.72881
20
-4.57527
11
7.73692
21
-4.57974
0
LINE
8
BLACK
6
CONTINUOUS
10
7.73692
20
-4.57974
11
7.73731
21
-4.57996
0
LINE
8
BLACK
6
CONTINUOUS
10
7.73731
20
-4.57996
11
7.73746
21
-4.58002
0
LINE
8
BLACK
6
CONTINUOUS
10
7.73746
20
-4.58002
11
7.73746
21
-4.58002
0
LINE
8
BLACK
6
CONTINUOUS
10
7.73746
20
-4.58002
11
7.74582
21
-4.58331
0
LINE
8
BLACK
6
CONTINUOUS
10
7.74582
20
-4.58331
11
7.74582
21
-4.58331
0
LINE
8
BLACK
6
CONTINUOUS
10
7.74582
20
-4.58331
11
7.74649
21
-4.58357
0
LINE
8
BLACK
6
CONTINUOUS
10
7.74649
20
-4.58357
11
7.7465
21
-4.58353
0
LINE
8
BLACK
6
CONTINUOUS
10
7.7465
20
-4.58353
11
7.74652
21
-4.58354
0
LINE
8
BLACK
6
CONTINUOUS
10
7.74652
20
-4.58354
11
7.74655
21
-4.58342
0
LINE
8
BLACK
6
CONTINUOUS
10
7.74655
20
-4.58342
11
8.15068
21
-4.66932
0
LINE
8
BLACK
6
CONTINUOUS
10
8.15068
20
-4.66932
11
8.1511
21
-4.66943
0
LINE
8
BLACK
6
CONTINUOUS
10
8.1511
20
-4.66943
11
8.15279
21
-4.66994
0
LINE
8
BLACK
6
CONTINUOUS
10
8.15279
20
-4.66994
11
8.15417
21
-4.67037
0
LINE
8
BLACK
6
CONTINUOUS
10
8.15417
20
-4.67037
11
8.15423
21
-4.67038
0
LINE
8
BLACK
6
CONTINUOUS
10
8.15423
20
-4.67038
11
8.15727
21
-4.67135
0
LINE
8
BLACK
6
CONTINUOUS
10
8.15727
20
-4.67135
11
8.15802
21
-4.67166
0
LINE
8
BLACK
6
CONTINUOUS
10
8.15802
20
-4.67166
11
8.1609
21
-4.67313
0
LINE
8
BLACK
6
CONTINUOUS
10
8.1609
20
-4.67313
11
8.16104
21
-4.6732
0
LINE
8
BLACK
6
CONTINUOUS
10
8.16104
20
-4.6732
11
8.16379
21
-4.67472
0
LINE
8
BLACK
6
CONTINUOUS
10
8.16379
20
-4.67472
11
8.16438
21
-4.6751
0
LINE
8
BLACK
6
CONTINUOUS
10
8.16438
20
-4.6751
11
8.16672
21
-4.67687
0
LINE
8
BLACK
6
CONTINUOUS
10
8.16672
20
-4.67687
11
8.16698
21
-4.67706
0
LINE
8
BLACK
6
CONTINUOUS
10
8.16698
20
-4.67706
11
8.1672
21
-4.67723
0
LINE
8
BLACK
6
CONTINUOUS
10
8.1672
20
-4.67723
11
8.16956
21
-4.67923
0
LINE
8
BLACK
6
CONTINUOUS
10
8.16956
20
-4.67923
11
8.16999
21
-4.67964
0
LINE
8
BLACK
6
CONTINUOUS
10
8.16999
20
-4.67964
11
8.17223
21
-4.68203
0
LINE
8
BLACK
6
CONTINUOUS
10
8.17223
20
-4.68203
11
8.17248
21
-4.68232
0
LINE
8
BLACK
6
CONTINUOUS
10
8.17248
20
-4.68232
11
8.1744
21
-4.68472
0
LINE
8
BLACK
6
CONTINUOUS
10
8.1744
20
-4.68472
11
8.17468
21
-4.68512
0
LINE
8
BLACK
6
CONTINUOUS
10
8.17468
20
-4.68512
11
8.17647
21
-4.68787
0
LINE
8
BLACK
6
CONTINUOUS
10
8.17647
20
-4.68787
11
8.17672
21
-4.68829
0
LINE
8
BLACK
6
CONTINUOUS
10
8.17672
20
-4.68829
11
8.17813
21
-4.69103
0
LINE
8
BLACK
6
CONTINUOUS
10
8.17813
20
-4.69103
11
8.17829
21
-4.69137
0
LINE
8
BLACK
6
CONTINUOUS
10
8.17829
20
-4.69137
11
8.17897
21
-4.69296
0
LINE
8
BLACK
6
CONTINUOUS
10
8.17897
20
-4.69296
11
8.17957
21
-4.69439
0
LINE
8
BLACK
6
CONTINUOUS
10
8.17957
20
-4.69439
11
8.17977
21
-4.69495
0
LINE
8
BLACK
6
CONTINUOUS
10
8.17977
20
-4.69495
11
8.18063
21
-4.69792
0
LINE
8
BLACK
6
CONTINUOUS
10
8.18063
20
-4.69792
11
8.1807
21
-4.69818
0
LINE
8
BLACK
6
CONTINUOUS
10
8.1807
20
-4.69818
11
8.18143
21
-4.70136
0
LINE
8
BLACK
6
CONTINUOUS
10
8.18143
20
-4.70136
11
8.18154
21
-4.70206
0
LINE
8
BLACK
6
CONTINUOUS
10
8.18154
20
-4.70206
11
8.18181
21
-4.70518
0
LINE
8
BLACK
6
CONTINUOUS
10
8.18181
20
-4.70518
11
8.18182
21
-4.70534
0
LINE
8
BLACK
6
CONTINUOUS
10
8.18182
20
-4.70534
11
8.18199
21
-4.70857
0
LINE
8
BLACK
6
CONTINUOUS
10
8.18199
20
-4.70857
11
8.18197
21
-4.70938
0
LINE
8
BLACK
6
CONTINUOUS
10
8.18197
20
-4.70938
11
8.18159
21
-4.71272
0
LINE
8
BLACK
6
CONTINUOUS
10
8.18159
20
-4.71272
11
8.18159
21
-4.71278
0
LINE
8
BLACK
6
CONTINUOUS
10
8.18159
20
-4.71278
11
8.18122
21
-4.71575
0
LINE
8
BLACK
6
CONTINUOUS
10
8.18122
20
-4.71575
11
8.18115
21
-4.7162
0
LINE
8
BLACK
6
CONTINUOUS
10
8.18115
20
-4.7162
11
8.1547
21
-4.83843
0
LINE
8
BLACK
6
CONTINUOUS
10
8.1547
20
-4.83843
11
8.04008
21
-5.36822
0
LINE
8
BLACK
6
CONTINUOUS
10
8.04008
20
-5.36822
11
8.03997
21
-5.36862
0
LINE
8
BLACK
6
CONTINUOUS
10
8.03997
20
-5.36862
11
8.03899
21
-5.37185
0
LINE
8
BLACK
6
CONTINUOUS
10
8.03899
20
-5.37185
11
8.03897
21
-5.37189
0
LINE
8
BLACK
6
CONTINUOUS
10
8.03897
20
-5.37189
11
8.03805
21
-5.37479
0
LINE
8
BLACK
6
CONTINUOUS
10
8.03805
20
-5.37479
11
8.03774
21
-5.37554
0
LINE
8
BLACK
6
CONTINUOUS
10
8.03774
20
-5.37554
11
8.03622
21
-5.37853
0
LINE
8
BLACK
6
CONTINUOUS
10
8.03622
20
-5.37853
11
8.03615
21
-5.37867
0
LINE
8
BLACK
6
CONTINUOUS
10
8.03615
20
-5.37867
11
8.0347
21
-5.3813
0
LINE
8
BLACK
6
CONTINUOUS
10
8.0347
20
-5.3813
11
8.03431
21
-5.38189
0
LINE
8
BLACK
6
CONTINUOUS
10
8.03431
20
-5.38189
11
8.03229
21
-5.38457
0
LINE
8
BLACK
6
CONTINUOUS
10
8.03229
20
-5.38457
11
8.03213
21
-5.38478
0
LINE
8
BLACK
6
CONTINUOUS
10
8.03213
20
-5.38478
11
8.03019
21
-5.38707
0
LINE
8
BLACK
6
CONTINUOUS
10
8.03019
20
-5.38707
11
8.02978
21
-5.3875
0
LINE
8
BLACK
6
CONTINUOUS
10
8.02978
20
-5.3875
11
8.02733
21
-5.38979
0
LINE
8
BLACK
6
CONTINUOUS
10
8.02733
20
-5.38979
11
8.02704
21
-5.39004
0
LINE
8
BLACK
6
CONTINUOUS
10
8.02704
20
-5.39004
11
8.02627
21
-5.39066
0
LINE
8
BLACK
6
CONTINUOUS
10
8.02627
20
-5.39066
11
8.0247
21
-5.39191
0
LINE
8
BLACK
6
CONTINUOUS
10
8.0247
20
-5.39191
11
8.02431
21
-5.39219
0
LINE
8
BLACK
6
CONTINUOUS
10
8.02431
20
-5.39219
11
8.02149
21
-5.39402
0
LINE
8
BLACK
6
CONTINUOUS
10
8.02149
20
-5.39402
11
8.02107
21
-5.39427
0
LINE
8
BLACK
6
CONTINUOUS
10
8.02107
20
-5.39427
11
8.01841
21
-5.39564
0
LINE
8
BLACK
6
CONTINUOUS
10
8.01841
20
-5.39564
11
8.01807
21
-5.3958
0
LINE
8
BLACK
6
CONTINUOUS
10
8.01807
20
-5.3958
11
8.01498
21
-5.39712
0
LINE
8
BLACK
6
CONTINUOUS
10
8.01498
20
-5.39712
11
8.01442
21
-5.39731
0
LINE
8
BLACK
6
CONTINUOUS
10
8.01442
20
-5.39731
11
8.01154
21
-5.39815
0
LINE
8
BLACK
6
CONTINUOUS
10
8.01154
20
-5.39815
11
8.01128
21
-5.39822
0
LINE
8
BLACK
6
CONTINUOUS
10
8.01128
20
-5.39822
11
8.00801
21
-5.39897
0
LINE
8
BLACK
6
CONTINUOUS
10
8.00801
20
-5.39897
11
8.00732
21
-5.39908
0
LINE
8
BLACK
6
CONTINUOUS
10
8.00732
20
-5.39908
11
8.00582
21
-5.39921
0
LINE
8
BLACK
6
CONTINUOUS
10
8.00582
20
-5.39921
11
8.00432
21
-5.39933
0
LINE
8
BLACK
6
CONTINUOUS
10
8.00432
20
-5.39933
11
8.00416
21
-5.39935
0
LINE
8
BLACK
6
CONTINUOUS
10
8.00416
20
-5.39935
11
8.0029
21
-5.39941
0
LINE
8
BLACK
6
CONTINUOUS
10
8.0029
20
-5.39941
11
8.00081
21
-5.39952
0
LINE
8
BLACK
6
CONTINUOUS
10
8.00081
20
-5.39952
11
8
21
-5.3995
0
LINE
8
BLACK
6
CONTINUOUS
10
8
20
-5.3995
11
7.99827
21
-5.3993
0
LINE
8
BLACK
6
CONTINUOUS
10
7.99827
20
-5.3993
11
7.99699
21
-5.39916
0
LINE
8
BLACK
6
CONTINUOUS
10
7.99699
20
-5.39916
11
7.99694
21
-5.39916
0
LINE
8
BLACK
6
CONTINUOUS
10
7.99694
20
-5.39916
11
7.9936
21
-5.39875
0
LINE
8
BLACK
6
CONTINUOUS
10
7.9936
20
-5.39875
11
7.99317
21
-5.39867
0
LINE
8
BLACK
6
CONTINUOUS
10
7.99317
20
-5.39867
11
7.61001
21
-5.31702
0
LINE
8
BLACK
6
CONTINUOUS
10
7.61001
20
-5.31702
11
7.41857
21
-5.27623
0
LINE
8
BLACK
6
CONTINUOUS
10
7.41857
20
-5.27623
11
7.41808
21
-5.27608
0
LINE
8
BLACK
6
CONTINUOUS
10
7.41808
20
-5.27608
11
7.41809
21
-5.27599
0
LINE
8
BLACK
6
CONTINUOUS
10
7.41809
20
-5.27599
11
7.41755
21
-5.2759
0
LINE
8
BLACK
6
CONTINUOUS
10
7.41755
20
-5.2759
11
7.41755
21
-5.2759
0
LINE
8
BLACK
6
CONTINUOUS
10
7.41755
20
-5.2759
11
7.38234
21
-5.26999
0
LINE
8
BLACK
6
CONTINUOUS
10
7.38234
20
-5.26999
11
7.3823
21
-5.26999
0
LINE
8
BLACK
6
CONTINUOUS
10
7.3823
20
-5.26999
11
7.38227
21
-5.26998
0
LINE
8
BLACK
6
CONTINUOUS
10
7.38227
20
-5.26998
11
7.38227
21
-5.26998
0
LINE
8
BLACK
6
CONTINUOUS
10
7.38227
20
-5.26998
11
7.34638
21
-5.26507
0
LINE
8
BLACK
6
CONTINUOUS
10
7.34638
20
-5.26507
11
7.34638
21
-5.26507
0
LINE
8
BLACK
6
CONTINUOUS
10
7.34638
20
-5.26507
11
7.34635
21
-5.26507
0
LINE
8
BLACK
6
CONTINUOUS
10
7.34635
20
-5.26507
11
7.31026
21
-5.26123
0
LINE
8
BLACK
6
CONTINUOUS
10
7.31026
20
-5.26123
11
7.27407
21
-5.25849
0
LINE
8
BLACK
6
CONTINUOUS
10
7.27407
20
-5.25849
11
7.27377
21
-5.25848
0
LINE
8
BLACK
6
CONTINUOUS
10
7.27377
20
-5.25848
11
7.23785
21
-5.25685
0
LINE
8
BLACK
6
CONTINUOUS
10
7.23785
20
-5.25685
11
7.23785
21
-5.25685
0
LINE
8
BLACK
6
CONTINUOUS
10
7.23785
20
-5.25685
11
7.23781
21
-5.25685
0
LINE
8
BLACK
6
CONTINUOUS
10
7.23781
20
-5.25685
11
7.20153
21
-5.2563
0
LINE
8
BLACK
6
CONTINUOUS
10
7.20153
20
-5.2563
11
7.20153
21
-5.25638
0
LINE
8
BLACK
6
CONTINUOUS
10
7.20153
20
-5.25638
11
7.20111
21
-5.25644
0
LINE
8
BLACK
6
CONTINUOUS
10
7.20111
20
-5.25644
11
6.59151
21
-5.25644
0
LINE
8
BLACK
6
CONTINUOUS
10
6.59151
20
-5.25644
11
6.59107
21
-5.25642
0
LINE
8
BLACK
6
CONTINUOUS
10
6.59107
20
-5.25642
11
6.58776
21
-5.25613
0
LINE
8
BLACK
6
CONTINUOUS
10
6.58776
20
-5.25613
11
6.5877
21
-5.25612
0
LINE
8
BLACK
6
CONTINUOUS
10
6.5877
20
-5.25612
11
6.58543
21
-5.2559
0
LINE
8
BLACK
6
CONTINUOUS
10
6.58543
20
-5.2559
11
6.58465
21
-5.25582
0
LINE
8
BLACK
6
CONTINUOUS
10
6.58465
20
-5.25582
11
6.58385
21
-5.25568
0
LINE
8
BLACK
6
CONTINUOUS
10
6.58385
20
-5.25568
11
6.58064
21
-5.25482
0
LINE
8
BLACK
6
CONTINUOUS
10
6.58064
20
-5.25482
11
6.58048
21
-5.25477
0
LINE
8
BLACK
6
CONTINUOUS
10
6.58048
20
-5.25477
11
6.57759
21
-5.25389
0
LINE
8
BLACK
6
CONTINUOUS
10
6.57759
20
-5.25389
11
6.57693
21
-5.25364
0
LINE
8
BLACK
6
CONTINUOUS
10
6.57693
20
-5.25364
11
6.5739
21
-5.25223
0
LINE
8
BLACK
6
CONTINUOUS
10
6.5739
20
-5.25223
11
6.57366
21
-5.25211
0
LINE
8
BLACK
6
CONTINUOUS
10
6.57366
20
-5.25211
11
6.571
21
-5.25069
0
LINE
8
BLACK
6
CONTINUOUS
10
6.571
20
-5.25069
11
6.5705
21
-5.25038
0
LINE
8
BLACK
6
CONTINUOUS
10
6.5705
20
-5.25038
11
6.56776
21
-5.24846
0
LINE
8
BLACK
6
CONTINUOUS
10
6.56776
20
-5.24846
11
6.56746
21
-5.24823
0
LINE
8
BLACK
6
CONTINUOUS
10
6.56746
20
-5.24823
11
6.56513
21
-5.24632
0
LINE
8
BLACK
6
CONTINUOUS
10
6.56513
20
-5.24632
11
6.56477
21
-5.24599
0
LINE
8
BLACK
6
CONTINUOUS
10
6.56477
20
-5.24599
11
6.5624
21
-5.24363
0
LINE
8
BLACK
6
CONTINUOUS
10
6.5624
20
-5.24363
11
6.56208
21
-5.24327
0
LINE
8
BLACK
6
CONTINUOUS
10
6.56208
20
-5.24327
11
6.56017
21
-5.24094
0
LINE
8
BLACK
6
CONTINUOUS
10
6.56017
20
-5.24094
11
6.55994
21
-5.24064
0
LINE
8
BLACK
6
CONTINUOUS
10
6.55994
20
-5.24064
11
6.55802
21
-5.2379
0
LINE
8
BLACK
6
CONTINUOUS
10
6.55802
20
-5.2379
11
6.55771
21
-5.2374
0
LINE
8
BLACK
6
CONTINUOUS
10
6.55771
20
-5.2374
11
6.55629
21
-5.23474
0
LINE
8
BLACK
6
CONTINUOUS
10
6.55629
20
-5.23474
11
6.55617
21
-5.2345
0
LINE
8
BLACK
6
CONTINUOUS
10
6.55617
20
-5.2345
11
6.55476
21
-5.23147
0
LINE
8
BLACK
6
CONTINUOUS
10
6.55476
20
-5.23147
11
6.55451
21
-5.23081
0
LINE
8
BLACK
6
CONTINUOUS
10
6.55451
20
-5.23081
11
6.55422
21
-5.22989
0
LINE
8
BLACK
6
CONTINUOUS
10
6.55422
20
-5.22989
11
6.55363
21
-5.22792
0
LINE
8
BLACK
6
CONTINUOUS
10
6.55363
20
-5.22792
11
6.55358
21
-5.22776
0
LINE
8
BLACK
6
CONTINUOUS
10
6.55358
20
-5.22776
11
6.55272
21
-5.22454
0
LINE
8
BLACK
6
CONTINUOUS
10
6.55272
20
-5.22454
11
6.55257
21
-5.22375
0
LINE
8
BLACK
6
CONTINUOUS
10
6.55257
20
-5.22375
11
6.55227
21
-5.22069
0
LINE
8
BLACK
6
CONTINUOUS
10
6.55227
20
-5.22069
11
6.55227
21
-5.22063
0
LINE
8
BLACK
6
CONTINUOUS
10
6.55227
20
-5.22063
11
6.55198
21
-5.21733
0
LINE
8
BLACK
6
CONTINUOUS
10
6.55198
20
-5.21733
11
6.55196
21
-5.21689
0
LINE
8
BLACK
6
CONTINUOUS
10
6.55196
20
-5.21689
11
6.55196
21
-4.54815
0
LINE
8
BLACK
6
CONTINUOUS
10
6.55196
20
-4.54815
11
6.55199
21
-4.54782
0
LINE
8
BLACK
6
CONTINUOUS
10
6.55199
20
-4.54782
11
6.55211
21
-4.54782
0
LINE
8
BLACK
6
CONTINUOUS
10
6.55211
20
-4.54782
11
6.55151
21
-4.54095
0
LINE
8
BLACK
6
CONTINUOUS
10
6.55151
20
-4.54095
11
6.54972
21
-4.53429
0
LINE
8
BLACK
6
CONTINUOUS
10
6.54972
20
-4.53429
11
6.54681
21
-4.52804
0
LINE
8
BLACK
6
CONTINUOUS
10
6.54681
20
-4.52804
11
6.54669
21
-4.52786
0
LINE
8
BLACK
6
CONTINUOUS
10
6.54669
20
-4.52786
11
6.54669
21
-4.52786
0
LINE
8
BLACK
6
CONTINUOUS
10
6.54669
20
-4.52786
11
6.54298
21
-4.52257
0
LINE
8
BLACK
6
CONTINUOUS
10
6.54298
20
-4.52257
11
6.54285
21
-4.52239
0
LINE
8
BLACK
6
CONTINUOUS
10
6.54285
20
-4.52239
11
6.53798
21
-4.51751
0
LINE
8
BLACK
6
CONTINUOUS
10
6.53798
20
-4.51751
11
6.53515
21
-4.51553
0
LINE
8
BLACK
6
CONTINUOUS
10
6.53515
20
-4.51553
11
6.53251
21
-4.51368
0
LINE
8
BLACK
6
CONTINUOUS
10
6.53251
20
-4.51368
11
6.53251
21
-4.51368
0
LINE
8
BLACK
6
CONTINUOUS
10
6.53251
20
-4.51368
11
6.53233
21
-4.51356
0
LINE
8
BLACK
6
CONTINUOUS
10
6.53233
20
-4.51356
11
6.5283
21
-4.51168
0
LINE
8
BLACK
6
CONTINUOUS
10
6.5283
20
-4.51168
11
6.52628
21
-4.51073
0
LINE
8
BLACK
6
CONTINUOUS
10
6.52628
20
-4.51073
11
6.52628
21
-4.51073
0
LINE
8
BLACK
6
CONTINUOUS
10
6.52628
20
-4.51073
11
6.52608
21
-4.51064
0
LINE
8
BLACK
6
CONTINUOUS
10
6.52608
20
-4.51064
11
6.51942
21
-4.50886
0
LINE
8
BLACK
6
CONTINUOUS
10
6.51942
20
-4.50886
11
6.5192
21
-4.50884
0
LINE
8
BLACK
6
CONTINUOUS
10
6.5192
20
-4.50884
11
6.5192
21
-4.50884
0
LINE
8
BLACK
6
CONTINUOUS
10
6.5192
20
-4.50884
11
6.51324
21
-4.50832
0
LINE
8
BLACK
6
CONTINUOUS
10
6.51324
20
-4.50832
11
6.51324
21
-4.50832
0
LINE
8
BLACK
6
CONTINUOUS
10
6.51324
20
-4.50832
11
6.51255
21
-4.50826
0
LINE
8
BLACK
6
CONTINUOUS
10
6.51255
20
-4.50826
11
6.51255
21
-4.50838
0
LINE
8
BLACK
6
CONTINUOUS
10
6.51255
20
-4.50838
11
6.51233
21
-4.50841
0
LINE
8
BLACK
6
CONTINUOUS
10
6.51233
20
-4.50841
11
6.23718
21
-4.50841
0
LINE
8
BLACK
6
CONTINUOUS
10
6.23718
20
-4.50841
11
6.23674
21
-4.50839
0
LINE
8
BLACK
6
CONTINUOUS
10
6.23674
20
-4.50839
11
6.23342
21
-4.5081
0
LINE
8
BLACK
6
CONTINUOUS
10
6.23342
20
-4.5081
11
6.23337
21
-4.50809
0
LINE
8
BLACK
6
CONTINUOUS
10
6.23337
20
-4.50809
11
6.23032
21
-4.50779
0
LINE
8
BLACK
6
CONTINUOUS
10
6.23032
20
-4.50779
11
6.22952
21
-4.50765
0
LINE
8
BLACK
6
CONTINUOUS
10
6.22952
20
-4.50765
11
6.22856
21
-4.50739
0
LINE
8
BLACK
6
CONTINUOUS
10
6.22856
20
-4.50739
11
6.2263
21
-4.50678
0
LINE
8
BLACK
6
CONTINUOUS
10
6.2263
20
-4.50678
11
6.22615
21
-4.50674
0
LINE
8
BLACK
6
CONTINUOUS
10
6.22615
20
-4.50674
11
6.22325
21
-4.50586
0
LINE
8
BLACK
6
CONTINUOUS
10
6.22325
20
-4.50586
11
6.2226
21
-4.50561
0
LINE
8
BLACK
6
CONTINUOUS
10
6.2226
20
-4.50561
11
6.21957
21
-4.5042
0
LINE
8
BLACK
6
CONTINUOUS
10
6.21957
20
-4.5042
11
6.21933
21
-4.50408
0
LINE
8
BLACK
6
CONTINUOUS
10
6.21933
20
-4.50408
11
6.21861
21
-4.50369
0
LINE
8
BLACK
6
CONTINUOUS
10
6.21861
20
-4.50369
11
6.21667
21
-4.50266
0
LINE
8
BLACK
6
CONTINUOUS
10
6.21667
20
-4.50266
11
6.21616
21
-4.50235
0
LINE
8
BLACK
6
CONTINUOUS
10
6.21616
20
-4.50235
11
6.21342
21
-4.50043
0
LINE
8
BLACK
6
CONTINUOUS
10
6.21342
20
-4.50043
11
6.21312
21
-4.5002
0
LINE
8
BLACK
6
CONTINUOUS
10
6.21312
20
-4.5002
11
6.2108
21
-4.49829
0
LINE
8
BLACK
6
CONTINUOUS
10
6.2108
20
-4.49829
11
6.21044
21
-4.49796
0
LINE
8
BLACK
6
CONTINUOUS
10
6.21044
20
-4.49796
11
6.20807
21
-4.4956
0
LINE
8
BLACK
6
CONTINUOUS
10
6.20807
20
-4.4956
11
6.20775
21
-4.49524
0
LINE
8
BLACK
6
CONTINUOUS
10
6.20775
20
-4.49524
11
6.20584
21
-4.49291
0
LINE
8
BLACK
6
CONTINUOUS
10
6.20584
20
-4.49291
11
6.20561
21
-4.49261
0
LINE
8
BLACK
6
CONTINUOUS
10
6.20561
20
-4.49261
11
6.20369
21
-4.48987
0
LINE
8
BLACK
6
CONTINUOUS
10
6.20369
20
-4.48987
11
6.20338
21
-4.48936
0
LINE
8
BLACK
6
CONTINUOUS
10
6.20338
20
-4.48936
11
6.20196
21
-4.48671
0
LINE
8
BLACK
6
CONTINUOUS
10
6.20196
20
-4.48671
11
6.20184
21
-4.48647
0
LINE
8
BLACK
6
CONTINUOUS
10
6.20184
20
-4.48647
11
6.20042
21
-4.48344
0
LINE
8
BLACK
6
CONTINUOUS
10
6.20042
20
-4.48344
11
6.20017
21
-4.48278
0
LINE
8
BLACK
6
CONTINUOUS
10
6.20017
20
-4.48278
11
6.1993
21
-4.47989
0
LINE
8
BLACK
6
CONTINUOUS
10
6.1993
20
-4.47989
11
6.19925
21
-4.47973
0
LINE
8
BLACK
6
CONTINUOUS
10
6.19925
20
-4.47973
11
6.19839
21
-4.47651
0
LINE
8
BLACK
6
CONTINUOUS
10
6.19839
20
-4.47651
11
6.19824
21
-4.47571
0
LINE
8
BLACK
6
CONTINUOUS
10
6.19824
20
-4.47571
11
6.19797
21
-4.47294
0
LINE
8
BLACK
6
CONTINUOUS
10
6.19797
20
-4.47294
11
6.19794
21
-4.47265
0
LINE
8
BLACK
6
CONTINUOUS
10
6.19794
20
-4.47265
11
6.19794
21
-4.4726
0
LINE
8
BLACK
6
CONTINUOUS
10
6.19794
20
-4.4726
11
6.19765
21
-4.4693
0
LINE
8
BLACK
6
CONTINUOUS
10
6.19765
20
-4.4693
11
6.19763
21
-4.46886
0
LINE
8
BLACK
6
CONTINUOUS
10
6.19763
20
-4.46886
11
6.19763
21
-4.39067
0
LINE
8
BLACK
6
CONTINUOUS
10
6.19763
20
-4.39067
11
6.19766
21
-4.39034
0
LINE
8
BLACK
6
CONTINUOUS
10
6.19766
20
-4.39034
11
6.19778
21
-4.39034
0
LINE
8
BLACK
6
CONTINUOUS
10
6.19778
20
-4.39034
11
6.19718
21
-4.38347
0
LINE
8
BLACK
6
CONTINUOUS
10
6.19718
20
-4.38347
11
6.19539
21
-4.37681
0
LINE
8
BLACK
6
CONTINUOUS
10
6.19539
20
-4.37681
11
6.19248
21
-4.37056
0
LINE
8
BLACK
6
CONTINUOUS
10
6.19248
20
-4.37056
11
6.19236
21
-4.37038
0
LINE
8
BLACK
6
CONTINUOUS
10
6.19236
20
-4.37038
11
6.19236
21
-4.37038
0
LINE
8
BLACK
6
CONTINUOUS
10
6.19236
20
-4.37038
11
6.18865
21
-4.36508
0
LINE
8
BLACK
6
CONTINUOUS
10
6.18865
20
-4.36508
11
6.18852
21
-4.36491
0
LINE
8
BLACK
6
CONTINUOUS
10
6.18852
20
-4.36491
11
6.18365
21
-4.36003
0
LINE
8
BLACK
6
CONTINUOUS
10
6.18365
20
-4.36003
11
6.18115
21
-4.35828
0
LINE
8
BLACK
6
CONTINUOUS
10
6.18115
20
-4.35828
11
6.17818
21
-4.3562
0
LINE
8
BLACK
6
CONTINUOUS
10
6.17818
20
-4.3562
11
6.17818
21
-4.3562
0
LINE
8
BLACK
6
CONTINUOUS
10
6.17818
20
-4.3562
11
6.178
21
-4.35608
0
LINE
8
BLACK
6
CONTINUOUS
10
6.178
20
-4.35608
11
6.17175
21
-4.35316
0
LINE
8
BLACK
6
CONTINUOUS
10
6.17175
20
-4.35316
11
6.16509
21
-4.35138
0
LINE
8
BLACK
6
CONTINUOUS
10
6.16509
20
-4.35138
11
6.16487
21
-4.35136
0
LINE
8
BLACK
6
CONTINUOUS
10
6.16487
20
-4.35136
11
6.16487
21
-4.35136
0
LINE
8
BLACK
6
CONTINUOUS
10
6.16487
20
-4.35136
11
6.15891
21
-4.35084
0
LINE
8
BLACK
6
CONTINUOUS
10
6.15891
20
-4.35084
11
6.15891
21
-4.35084
0
LINE
8
BLACK
6
CONTINUOUS
10
6.15891
20
-4.35084
11
6.15822
21
-4.35078
0
LINE
8
BLACK
6
CONTINUOUS
10
6.15822
20
-4.35078
11
6.15822
21
-4.3509
0
LINE
8
BLACK
6
CONTINUOUS
10
6.15822
20
-4.3509
11
6.158
21
-4.35093
0
LINE
8
BLACK
6
CONTINUOUS
10
6.158
20
-4.35093
11
6.00119
21
-4.35093
0
LINE
8
BLACK
6
CONTINUOUS
10
6.00119
20
-4.35093
11
5.61545
21
-4.35093
0
LINE
8
BLACK
6
CONTINUOUS
10
5.61545
20
-4.35093
11
5.61492
21
-4.35086
0
LINE
8
BLACK
6
CONTINUOUS
10
5.61492
20
-4.35086
11
5.61492
21
-4.35078
0
LINE
8
BLACK
6
CONTINUOUS
10
5.61492
20
-4.35078
11
5.6109
21
-4.35084
0
LINE
8
BLACK
6
CONTINUOUS
10
5.6109
20
-4.35084
11
5.60818
21
-4.35089
0
LINE
8
BLACK
6
CONTINUOUS
10
5.60818
20
-4.35089
11
5.60818
21
-4.35089
0
LINE
8
BLACK
6
CONTINUOUS
10
5.60818
20
-4.35089
11
5.60796
21
-4.35089
0
LINE
8
BLACK
6
CONTINUOUS
10
5.60796
20
-4.35089
11
5.60776
21
-4.35093
0
LINE
8
BLACK
6
CONTINUOUS
10
5.60776
20
-4.35093
11
5.60776
21
-4.35093
0
LINE
8
BLACK
6
CONTINUOUS
10
5.60776
20
-4.35093
11
5.60133
21
-4.35215
0
LINE
8
BLACK
6
CONTINUOUS
10
5.60133
20
-4.35215
11
5.60133
21
-4.35215
0
LINE
8
BLACK
6
CONTINUOUS
10
5.60133
20
-4.35215
11
5.60112
21
-4.35219
0
LINE
8
BLACK
6
CONTINUOUS
10
5.60112
20
-4.35219
11
5.60093
21
-4.35227
0
LINE
8
BLACK
6
CONTINUOUS
10
5.60093
20
-4.35227
11
5.60093
21
-4.35227
0
LINE
8
BLACK
6
CONTINUOUS
10
5.60093
20
-4.35227
11
5.5948
21
-4.35456
0
LINE
8
BLACK
6
CONTINUOUS
10
5.5948
20
-4.35456
11
5.5948
21
-4.35456
0
LINE
8
BLACK
6
CONTINUOUS
10
5.5948
20
-4.35456
11
5.59461
21
-4.35463
0
LINE
8
BLACK
6
CONTINUOUS
10
5.59461
20
-4.35463
11
5.5886
21
-4.35815
0
LINE
8
BLACK
6
CONTINUOUS
10
5.5886
20
-4.35815
11
5.58843
21
-4.35828
0
LINE
8
BLACK
6
CONTINUOUS
10
5.58843
20
-4.35828
11
5.58843
21
-4.35828
0
LINE
8
BLACK
6
CONTINUOUS
10
5.58843
20
-4.35828
11
5.58343
21
-4.3625
0
LINE
8
BLACK
6
CONTINUOUS
10
5.58343
20
-4.3625
11
5.58327
21
-4.36263
0
LINE
8
BLACK
6
CONTINUOUS
10
5.58327
20
-4.36263
11
5.58314
21
-4.36279
0
LINE
8
BLACK
6
CONTINUOUS
10
5.58314
20
-4.36279
11
5.58313
21
-4.36279
0
LINE
8
BLACK
6
CONTINUOUS
10
5.58313
20
-4.36279
11
5.58136
21
-4.36491
0
LINE
8
BLACK
6
CONTINUOUS
10
5.58136
20
-4.36491
11
5.57879
21
-4.36796
0
LINE
8
BLACK
6
CONTINUOUS
10
5.57879
20
-4.36796
11
5.57527
21
-4.37397
0
LINE
8
BLACK
6
CONTINUOUS
10
5.57527
20
-4.37397
11
5.57283
21
-4.38049
0
LINE
8
BLACK
6
CONTINUOUS
10
5.57283
20
-4.38049
11
5.57153
21
-4.38733
0
LINE
8
BLACK
6
CONTINUOUS
10
5.57153
20
-4.38733
11
5.57142
21
-4.39429
0
LINE
8
BLACK
6
CONTINUOUS
10
5.57142
20
-4.39429
11
5.57154
21
-4.39428
0
LINE
8
BLACK
6
CONTINUOUS
10
5.57154
20
-4.39428
11
5.57158
21
-4.39453
0
LINE
8
BLACK
6
CONTINUOUS
10
5.57158
20
-4.39453
11
5.5755
21
-4.46108
0
LINE
8
BLACK
6
CONTINUOUS
10
5.5755
20
-4.46108
11
5.5755
21
-4.46134
0
LINE
8
BLACK
6
CONTINUOUS
10
5.5755
20
-4.46134
11
5.57553
21
-4.46494
0
LINE
8
BLACK
6
CONTINUOUS
10
5.57553
20
-4.46494
11
5.57553
21
-4.46499
0
LINE
8
BLACK
6
CONTINUOUS
10
5.57553
20
-4.46499
11
5.57551
21
-4.46842
0
LINE
8
BLACK
6
CONTINUOUS
10
5.57551
20
-4.46842
11
5.57545
21
-4.4692
0
LINE
8
BLACK
6
CONTINUOUS
10
5.57545
20
-4.4692
11
5.57486
21
-4.47278
0
LINE
8
BLACK
6
CONTINUOUS
10
5.57486
20
-4.47278
11
5.57483
21
-4.47294
0
LINE
8
BLACK
6
CONTINUOUS
10
5.57483
20
-4.47294
11
5.57419
21
-4.47618
0
LINE
8
BLACK
6
CONTINUOUS
10
5.57419
20
-4.47618
11
5.57401
21
-4.47683
0
LINE
8
BLACK
6
CONTINUOUS
10
5.57401
20
-4.47683
11
5.5732
21
-4.47919
0
LINE
8
BLACK
6
CONTINUOUS
10
5.5732
20
-4.47919
11
5.57283
21
-4.48028
0
LINE
8
BLACK
6
CONTINUOUS
10
5.57283
20
-4.48028
11
5.57273
21
-4.48053
0
LINE
8
BLACK
6
CONTINUOUS
10
5.57273
20
-4.48053
11
5.5715
21
-4.48357
0
LINE
8
BLACK
6
CONTINUOUS
10
5.5715
20
-4.48357
11
5.57126
21
-4.48409
0
LINE
8
BLACK
6
CONTINUOUS
10
5.57126
20
-4.48409
11
5.5695
21
-4.48729
0
LINE
8
BLACK
6
CONTINUOUS
10
5.5695
20
-4.48729
11
5.56932
21
-4.48761
0
LINE
8
BLACK
6
CONTINUOUS
10
5.56932
20
-4.48761
11
5.56753
21
-4.49036
0
LINE
8
BLACK
6
CONTINUOUS
10
5.56753
20
-4.49036
11
5.56726
21
-4.49075
0
LINE
8
BLACK
6
CONTINUOUS
10
5.56726
20
-4.49075
11
5.56499
21
-4.4936
0
LINE
8
BLACK
6
CONTINUOUS
10
5.56499
20
-4.4936
11
5.56468
21
-4.49396
0
LINE
8
BLACK
6
CONTINUOUS
10
5.56468
20
-4.49396
11
5.56241
21
-4.49633
0
LINE
8
BLACK
6
CONTINUOUS
10
5.56241
20
-4.49633
11
5.56215
21
-4.49658
0
LINE
8
BLACK
6
CONTINUOUS
10
5.56215
20
-4.49658
11
5.56025
21
-4.49829
0
LINE
8
BLACK
6
CONTINUOUS
10
5.56025
20
-4.49829
11
5.55944
21
-4.49902
0
LINE
8
BLACK
6
CONTINUOUS
10
5.55944
20
-4.49902
11
5.55899
21
-4.49938
0
LINE
8
BLACK
6
CONTINUOUS
10
5.55899
20
-4.49938
11
5.5563
21
-4.50128
0
LINE
8
BLACK
6
CONTINUOUS
10
5.5563
20
-4.50128
11
5.55609
21
-4.50143
0
LINE
8
BLACK
6
CONTINUOUS
10
5.55609
20
-4.50143
11
5.55301
21
-4.50337
0
LINE
8
BLACK
6
CONTINUOUS
10
5.55301
20
-4.50337
11
5.55241
21
-4.50369
0
LINE
8
BLACK
6
CONTINUOUS
10
5.55241
20
-4.50369
11
5.5494
21
-4.50506
0
LINE
8
BLACK
6
CONTINUOUS
10
5.5494
20
-4.50506
11
5.54926
21
-4.50512
0
LINE
8
BLACK
6
CONTINUOUS
10
5.54926
20
-4.50512
11
5.5459
21
-4.50652
0
LINE
8
BLACK
6
CONTINUOUS
10
5.5459
20
-4.50652
11
5.54516
21
-4.50676
0
LINE
8
BLACK
6
CONTINUOUS
10
5.54516
20
-4.50676
11
5.54188
21
-4.50755
0
LINE
8
BLACK
6
CONTINUOUS
10
5.54188
20
-4.50755
11
5.54183
21
-4.50756
0
LINE
8
BLACK
6
CONTINUOUS
10
5.54183
20
-4.50756
11
5.54034
21
-4.5079
0
LINE
8
BLACK
6
CONTINUOUS
10
5.54034
20
-4.5079
11
5.53851
21
-4.50832
0
LINE
8
BLACK
6
CONTINUOUS
10
5.53851
20
-4.50832
11
5.53774
21
-4.50843
0
LINE
8
BLACK
6
CONTINUOUS
10
5.53774
20
-4.50843
11
4.91447
21
-4.55169
0
LINE
8
BLACK
6
CONTINUOUS
10
4.91447
20
-4.55169
11
4.91412
21
-4.55169
0
LINE
8
BLACK
6
CONTINUOUS
10
4.91412
20
-4.55169
11
4.91411
21
-4.55155
0
LINE
8
BLACK
6
CONTINUOUS
10
4.91411
20
-4.55155
11
4.90695
21
-4.55288
0
LINE
8
BLACK
6
CONTINUOUS
10
4.90695
20
-4.55288
11
4.90015
21
-4.55546
0
LINE
8
BLACK
6
CONTINUOUS
10
4.90015
20
-4.55546
11
4.89979
21
-4.55568
0
LINE
8
BLACK
6
CONTINUOUS
10
4.89979
20
-4.55568
11
4.89411
21
-4.55911
0
LINE
8
BLACK
6
CONTINUOUS
10
4.89411
20
-4.55911
11
4.89411
21
-4.55911
0
LINE
8
BLACK
6
CONTINUOUS
10
4.89411
20
-4.55911
11
4.89392
21
-4.55922
0
LINE
8
BLACK
6
CONTINUOUS
10
4.89392
20
-4.55922
11
4.88846
21
-4.56403
0
LINE
8
BLACK
6
CONTINUOUS
10
4.88846
20
-4.56403
11
4.88395
21
-4.56974
0
LINE
8
BLACK
6
CONTINUOUS
10
4.88395
20
-4.56974
11
4.88054
21
-4.57616
0
LINE
8
BLACK
6
CONTINUOUS
10
4.88054
20
-4.57616
11
4.88047
21
-4.57638
0
LINE
8
BLACK
6
CONTINUOUS
10
4.88047
20
-4.57638
11
4.88047
21
-4.57638
0
LINE
8
BLACK
6
CONTINUOUS
10
4.88047
20
-4.57638
11
4.8793
21
-4.58002
0
LINE
8
BLACK
6
CONTINUOUS
10
4.8793
20
-4.58002
11
4.87832
21
-4.58309
0
LINE
8
BLACK
6
CONTINUOUS
10
4.87832
20
-4.58309
11
4.87829
21
-4.58331
0
LINE
8
BLACK
6
CONTINUOUS
10
4.87829
20
-4.58331
11
4.87829
21
-4.58331
0
LINE
8
BLACK
6
CONTINUOUS
10
4.87829
20
-4.58331
11
4.87787
21
-4.58653
0
LINE
8
BLACK
6
CONTINUOUS
10
4.87787
20
-4.58653
11
4.87738
21
-4.59031
0
LINE
8
BLACK
6
CONTINUOUS
10
4.87738
20
-4.59031
11
4.87774
21
-4.59757
0
LINE
8
BLACK
6
CONTINUOUS
10
4.87774
20
-4.59757
11
4.87788
21
-4.59756
0
LINE
8
BLACK
6
CONTINUOUS
10
4.87788
20
-4.59756
11
4.87794
21
-4.59783
0
LINE
8
BLACK
6
CONTINUOUS
10
4.87794
20
-4.59783
11
4.89157
21
-4.6948
0
LINE
8
BLACK
6
CONTINUOUS
10
4.89157
20
-4.6948
11
4.89161
21
-4.69524
0
LINE
8
BLACK
6
CONTINUOUS
10
4.89161
20
-4.69524
11
4.89179
21
-4.69861
0
LINE
8
BLACK
6
CONTINUOUS
10
4.89179
20
-4.69861
11
4.89179
21
-4.69866
0
LINE
8
BLACK
6
CONTINUOUS
10
4.89179
20
-4.69866
11
4.89192
21
-4.70167
0
LINE
8
BLACK
6
CONTINUOUS
10
4.89192
20
-4.70167
11
4.89188
21
-4.70248
0
LINE
8
BLACK
6
CONTINUOUS
10
4.89188
20
-4.70248
11
4.89147
21
-4.70583
0
LINE
8
BLACK
6
CONTINUOUS
10
4.89147
20
-4.70583
11
4.89145
21
-4.70599
0
LINE
8
BLACK
6
CONTINUOUS
10
4.89145
20
-4.70599
11
4.89099
21
-4.70894
0
LINE
8
BLACK
6
CONTINUOUS
10
4.89099
20
-4.70894
11
4.89083
21
-4.70962
0
LINE
8
BLACK
6
CONTINUOUS
10
4.89083
20
-4.70962
11
4.88985
21
-4.71284
0
LINE
8
BLACK
6
CONTINUOUS
10
4.88985
20
-4.71284
11
4.88976
21
-4.7131
0
LINE
8
BLACK
6
CONTINUOUS
10
4.88976
20
-4.7131
11
4.88874
21
-4.7159
0
LINE
8
BLACK
6
CONTINUOUS
10
4.88874
20
-4.7159
11
4.8885
21
-4.71645
0
LINE
8
BLACK
6
CONTINUOUS
10
4.8885
20
-4.71645
11
4.88697
21
-4.71945
0
LINE
8
BLACK
6
CONTINUOUS
10
4.88697
20
-4.71945
11
4.88678
21
-4.71978
0
LINE
8
BLACK
6
CONTINUOUS
10
4.88678
20
-4.71978
11
4.88523
21
-4.72233
0
LINE
8
BLACK
6
CONTINUOUS
10
4.88523
20
-4.72233
11
4.88496
21
-4.72273
0
LINE
8
BLACK
6
CONTINUOUS
10
4.88496
20
-4.72273
11
4.88293
21
-4.72542
0
LINE
8
BLACK
6
CONTINUOUS
10
4.88293
20
-4.72542
11
4.88262
21
-4.72579
0
LINE
8
BLACK
6
CONTINUOUS
10
4.88262
20
-4.72579
11
4.8817
21
-4.72679
0
LINE
8
BLACK
6
CONTINUOUS
10
4.8817
20
-4.72679
11
4.8806
21
-4.72799
0
LINE
8
BLACK
6
CONTINUOUS
10
4.8806
20
-4.72799
11
4.88033
21
-4.72825
0
LINE
8
BLACK
6
CONTINUOUS
10
4.88033
20
-4.72825
11
4.87787
21
-4.73055
0
LINE
8
BLACK
6
CONTINUOUS
10
4.87787
20
-4.73055
11
4.87741
21
-4.73093
0
LINE
8
BLACK
6
CONTINUOUS
10
4.87741
20
-4.73093
11
4.875
21
-4.73269
0
LINE
8
BLACK
6
CONTINUOUS
10
4.875
20
-4.73269
11
4.87478
21
-4.73284
0
LINE
8
BLACK
6
CONTINUOUS
10
4.87478
20
-4.73284
11
4.87195
21
-4.73468
0
LINE
8
BLACK
6
CONTINUOUS
10
4.87195
20
-4.73468
11
4.87134
21
-4.73502
0
LINE
8
BLACK
6
CONTINUOUS
10
4.87134
20
-4.73502
11
4.86863
21
-4.73627
0
LINE
8
BLACK
6
CONTINUOUS
10
4.86863
20
-4.73627
11
4.86848
21
-4.73634
0
LINE
8
BLACK
6
CONTINUOUS
10
4.86848
20
-4.73634
11
4.86538
21
-4.73765
0
LINE
8
BLACK
6
CONTINUOUS
10
4.86538
20
-4.73765
11
4.86461
21
-4.73791
0
LINE
8
BLACK
6
CONTINUOUS
10
4.86461
20
-4.73791
11
4.86172
21
-4.73861
0
LINE
8
BLACK
6
CONTINUOUS
10
4.86172
20
-4.73861
11
4.86166
21
-4.73862
0
LINE
8
BLACK
6
CONTINUOUS
10
4.86166
20
-4.73862
11
4.86013
21
-4.73898
0
LINE
8
BLACK
6
CONTINUOUS
10
4.86013
20
-4.73898
11
4.85833
21
-4.73939
0
LINE
8
BLACK
6
CONTINUOUS
10
4.85833
20
-4.73939
11
4.8579
21
-4.73947
0
LINE
8
BLACK
6
CONTINUOUS
10
4.8579
20
-4.73947
11
4.15658
21
-4.83804
0
LINE
8
BLACK
6
CONTINUOUS
10
4.15658
20
-4.83804
11
4.15615
21
-4.83808
0
LINE
8
BLACK
6
CONTINUOUS
10
4.15615
20
-4.83808
11
4.15514
21
-4.83813
0
LINE
8
BLACK
6
CONTINUOUS
10
4.15514
20
-4.83813
11
4.15266
21
-4.83826
0
LINE
8
BLACK
6
CONTINUOUS
10
4.15266
20
-4.83826
11
4.15261
21
-4.83826
0
LINE
8
BLACK
6
CONTINUOUS
10
4.15261
20
-4.83826
11
4.15122
21
-4.83832
0
LINE
8
BLACK
6
CONTINUOUS
10
4.15122
20
-4.83832
11
4.14972
21
-4.83838
0
LINE
8
BLACK
6
CONTINUOUS
10
4.14972
20
-4.83838
11
4.14891
21
-4.83835
0
LINE
8
BLACK
6
CONTINUOUS
10
4.14891
20
-4.83835
11
4.14548
21
-4.83793
0
LINE
8
BLACK
6
CONTINUOUS
10
4.14548
20
-4.83793
11
4.14532
21
-4.83791
0
LINE
8
BLACK
6
CONTINUOUS
10
4.14532
20
-4.83791
11
4.14416
21
-4.83773
0
LINE
8
BLACK
6
CONTINUOUS
10
4.14416
20
-4.83773
11
4.14246
21
-4.83746
0
LINE
8
BLACK
6
CONTINUOUS
10
4.14246
20
-4.83746
11
4.14177
21
-4.8373
0
LINE
8
BLACK
6
CONTINUOUS
10
4.14177
20
-4.8373
11
4.1385
21
-4.8363
0
LINE
8
BLACK
6
CONTINUOUS
10
4.1385
20
-4.8363
11
4.13824
21
-4.83622
0
LINE
8
BLACK
6
CONTINUOUS
10
4.13824
20
-4.83622
11
4.1355
21
-4.83521
0
LINE
8
BLACK
6
CONTINUOUS
10
4.1355
20
-4.83521
11
4.13495
21
-4.83497
0
LINE
8
BLACK
6
CONTINUOUS
10
4.13495
20
-4.83497
11
4.13191
21
-4.83342
0
LINE
8
BLACK
6
CONTINUOUS
10
4.13191
20
-4.83342
11
4.13157
21
-4.83324
0
LINE
8
BLACK
6
CONTINUOUS
10
4.13157
20
-4.83324
11
4.12908
21
-4.83171
0
LINE
8
BLACK
6
CONTINUOUS
10
4.12908
20
-4.83171
11
4.12867
21
-4.83144
0
LINE
8
BLACK
6
CONTINUOUS
10
4.12867
20
-4.83144
11
4.12595
21
-4.82938
0
LINE
8
BLACK
6
CONTINUOUS
10
4.12595
20
-4.82938
11
4.12557
21
-4.82907
0
LINE
8
BLACK
6
CONTINUOUS
10
4.12557
20
-4.82907
11
4.12342
21
-4.82709
0
LINE
8
BLACK
6
CONTINUOUS
10
4.12342
20
-4.82709
11
4.12315
21
-4.82682
0
LINE
8
BLACK
6
CONTINUOUS
10
4.12315
20
-4.82682
11
4.12082
21
-4.82432
0
LINE
8
BLACK
6
CONTINUOUS
10
4.12082
20
-4.82432
11
4.12044
21
-4.82386
0
LINE
8
BLACK
6
CONTINUOUS
10
4.12044
20
-4.82386
11
4.11872
21
-4.8215
0
LINE
8
BLACK
6
CONTINUOUS
10
4.11872
20
-4.8215
11
4.11856
21
-4.82128
0
LINE
8
BLACK
6
CONTINUOUS
10
4.11856
20
-4.82128
11
4.1167
21
-4.8184
0
LINE
8
BLACK
6
CONTINUOUS
10
4.1167
20
-4.8184
11
4.11636
21
-4.81779
0
LINE
8
BLACK
6
CONTINUOUS
10
4.11636
20
-4.81779
11
4.11514
21
-4.81516
0
LINE
8
BLACK
6
CONTINUOUS
10
4.11514
20
-4.81516
11
4.11507
21
-4.81502
0
LINE
8
BLACK
6
CONTINUOUS
10
4.11507
20
-4.81502
11
4.11372
21
-4.81183
0
LINE
8
BLACK
6
CONTINUOUS
10
4.11372
20
-4.81183
11
4.11347
21
-4.81106
0
LINE
8
BLACK
6
CONTINUOUS
10
4.11347
20
-4.81106
11
4.11282
21
-4.8084
0
LINE
8
BLACK
6
CONTINUOUS
10
4.11282
20
-4.8084
11
4.11281
21
-4.80834
0
LINE
8
BLACK
6
CONTINUOUS
10
4.11281
20
-4.80834
11
4.11248
21
-4.80694
0
LINE
8
BLACK
6
CONTINUOUS
10
4.11248
20
-4.80694
11
4.11198
21
-4.80477
0
LINE
8
BLACK
6
CONTINUOUS
10
4.11198
20
-4.80477
11
4.11191
21
-4.80434
0
LINE
8
BLACK
6
CONTINUOUS
10
4.11191
20
-4.80434
11
4.10279
21
-4.73952
0
LINE
8
BLACK
6
CONTINUOUS
10
4.10279
20
-4.73952
11
4.07062
21
-4.51059
0
LINE
8
BLACK
6
CONTINUOUS
10
4.07062
20
-4.51059
11
4.0298
21
-4.2201
0
LINE
8
BLACK
6
CONTINUOUS
10
4.0298
20
-4.2201
11
4.02978
21
-4.21979
0
LINE
8
BLACK
6
CONTINUOUS
10
4.02978
20
-4.21979
11
4.0299
21
-4.21977
0
LINE
8
BLACK
6
CONTINUOUS
10
4.0299
20
-4.21977
11
4.02835
21
-4.21305
0
LINE
8
BLACK
6
CONTINUOUS
10
4.02835
20
-4.21305
11
4.02565
21
-4.2067
0
LINE
8
BLACK
6
CONTINUOUS
10
4.02565
20
-4.2067
11
4.0219
21
-4.20092
0
LINE
8
BLACK
6
CONTINUOUS
10
4.0219
20
-4.20092
11
4.0172
21
-4.19588
0
LINE
8
BLACK
6
CONTINUOUS
10
4.0172
20
-4.19588
11
4.01169
21
-4.19173
0
LINE
8
BLACK
6
CONTINUOUS
10
4.01169
20
-4.19173
11
4.0084
21
-4.19005
0
LINE
8
BLACK
6
CONTINUOUS
10
4.0084
20
-4.19005
11
4.00574
21
-4.18869
0
LINE
8
BLACK
6
CONTINUOUS
10
4.00574
20
-4.18869
11
4.00574
21
-4.18869
0
LINE
8
BLACK
6
CONTINUOUS
10
4.00574
20
-4.18869
11
4.00554
21
-4.18859
0
LINE
8
BLACK
6
CONTINUOUS
10
4.00554
20
-4.18859
11
3.99895
21
-4.18658
0
LINE
8
BLACK
6
CONTINUOUS
10
3.99895
20
-4.18658
11
3.99874
21
-4.18655
0
LINE
8
BLACK
6
CONTINUOUS
10
3.99874
20
-4.18655
11
3.99874
21
-4.18655
0
LINE
8
BLACK
6
CONTINUOUS
10
3.99874
20
-4.18655
11
3.99553
21
-4.18616
0
LINE
8
BLACK
6
CONTINUOUS
10
3.99553
20
-4.18616
11
3.99211
21
-4.18574
0
LINE
8
BLACK
6
CONTINUOUS
10
3.99211
20
-4.18574
11
3.9911
21
-4.18579
0
LINE
8
BLACK
6
CONTINUOUS
10
3.9911
20
-4.18579
11
3.98591
21
-4.18606
0
LINE
8
BLACK
6
CONTINUOUS
10
3.98591
20
-4.18606
11
3.98591
21
-4.18606
0
LINE
8
BLACK
6
CONTINUOUS
10
3.98591
20
-4.18606
11
3.98522
21
-4.1861
0
LINE
8
BLACK
6
CONTINUOUS
10
3.98522
20
-4.1861
11
3.98524
21
-4.18623
0
LINE
8
BLACK
6
CONTINUOUS
10
3.98524
20
-4.18623
11
3.98502
21
-4.18628
0
LINE
8
BLACK
6
CONTINUOUS
10
3.98502
20
-4.18628
11
3.36166
21
-4.27389
0
LINE
8
BLACK
6
CONTINUOUS
10
3.36166
20
-4.27389
11
3.36123
21
-4.27393
0
LINE
8
BLACK
6
CONTINUOUS
10
3.36123
20
-4.27393
11
3.35999
21
-4.27399
0
LINE
8
BLACK
6
CONTINUOUS
10
3.35999
20
-4.27399
11
3.3579
21
-4.2741
0
LINE
8
BLACK
6
CONTINUOUS
10
3.3579
20
-4.2741
11
3.35784
21
-4.2741
0
LINE
8
BLACK
6
CONTINUOUS
10
3.35784
20
-4.2741
11
3.35676
21
-4.27415
0
LINE
8
BLACK
6
CONTINUOUS
10
3.35676
20
-4.27415
11
3.35479
21
-4.27423
0
LINE
8
BLACK
6
CONTINUOUS
10
3.35479
20
-4.27423
11
3.35398
21
-4.2742
0
LINE
8
BLACK
6
CONTINUOUS
10
3.35398
20
-4.2742
11
3.35067
21
-4.27379
0
LINE
8
BLACK
6
CONTINUOUS
10
3.35067
20
-4.27379
11
3.35051
21
-4.27377
0
LINE
8
BLACK
6
CONTINUOUS
10
3.35051
20
-4.27377
11
3.34868
21
-4.27348
0
LINE
8
BLACK
6
CONTINUOUS
10
3.34868
20
-4.27348
11
3.34752
21
-4.2733
0
LINE
8
BLACK
6
CONTINUOUS
10
3.34752
20
-4.2733
11
3.34684
21
-4.27315
0
LINE
8
BLACK
6
CONTINUOUS
10
3.34684
20
-4.27315
11
3.34364
21
-4.27217
0
LINE
8
BLACK
6
CONTINUOUS
10
3.34364
20
-4.27217
11
3.34338
21
-4.27208
0
LINE
8
BLACK
6
CONTINUOUS
10
3.34338
20
-4.27208
11
3.34056
21
-4.27105
0
LINE
8
BLACK
6
CONTINUOUS
10
3.34056
20
-4.27105
11
3.34001
21
-4.27081
0
LINE
8
BLACK
6
CONTINUOUS
10
3.34001
20
-4.27081
11
3.33703
21
-4.26929
0
LINE
8
BLACK
6
CONTINUOUS
10
3.33703
20
-4.26929
11
3.3367
21
-4.26911
0
LINE
8
BLACK
6
CONTINUOUS
10
3.3367
20
-4.26911
11
3.33413
21
-4.26754
0
LINE
8
BLACK
6
CONTINUOUS
10
3.33413
20
-4.26754
11
3.33373
21
-4.26727
0
LINE
8
BLACK
6
CONTINUOUS
10
3.33373
20
-4.26727
11
3.33106
21
-4.26525
0
LINE
8
BLACK
6
CONTINUOUS
10
3.33106
20
-4.26525
11
3.33069
21
-4.26494
0
LINE
8
BLACK
6
CONTINUOUS
10
3.33069
20
-4.26494
11
3.32847
21
-4.26291
0
LINE
8
BLACK
6
CONTINUOUS
10
3.32847
20
-4.26291
11
3.3282
21
-4.26264
0
LINE
8
BLACK
6
CONTINUOUS
10
3.3282
20
-4.26264
11
3.32592
21
-4.26019
0
LINE
8
BLACK
6
CONTINUOUS
10
3.32592
20
-4.26019
11
3.32554
21
-4.25973
0
LINE
8
BLACK
6
CONTINUOUS
10
3.32554
20
-4.25973
11
3.32377
21
-4.2573
0
LINE
8
BLACK
6
CONTINUOUS
10
3.32377
20
-4.2573
11
3.32362
21
-4.25708
0
LINE
8
BLACK
6
CONTINUOUS
10
3.32362
20
-4.25708
11
3.32179
21
-4.25427
0
LINE
8
BLACK
6
CONTINUOUS
10
3.32179
20
-4.25427
11
3.32145
21
-4.25366
0
LINE
8
BLACK
6
CONTINUOUS
10
3.32145
20
-4.25366
11
3.32129
21
-4.2533
0
LINE
8
BLACK
6
CONTINUOUS
10
3.32129
20
-4.2533
11
3.32018
21
-4.25092
0
LINE
8
BLACK
6
CONTINUOUS
10
3.32018
20
-4.25092
11
3.32012
21
-4.25077
0
LINE
8
BLACK
6
CONTINUOUS
10
3.32012
20
-4.25077
11
3.31881
21
-4.2477
0
LINE
8
BLACK
6
CONTINUOUS
10
3.31881
20
-4.2477
11
3.31856
21
-4.24693
0
LINE
8
BLACK
6
CONTINUOUS
10
3.31856
20
-4.24693
11
3.31784
21
-4.24394
0
LINE
8
BLACK
6
CONTINUOUS
10
3.31784
20
-4.24394
11
3.31782
21
-4.24389
0
LINE
8
BLACK
6
CONTINUOUS
10
3.31782
20
-4.24389
11
3.31708
21
-4.24066
0
LINE
8
BLACK
6
CONTINUOUS
10
3.31708
20
-4.24066
11
3.317
21
-4.24023
0
LINE
8
BLACK
6
CONTINUOUS
10
3.317
20
-4.24023
11
3.22391
21
-3.57788
0
LINE
8
BLACK
6
CONTINUOUS
10
3.22391
20
-3.57788
11
3.22387
21
-3.57744
0
LINE
8
BLACK
6
CONTINUOUS
10
3.22387
20
-3.57744
11
3.22385
21
-3.57708
0
LINE
8
BLACK
6
CONTINUOUS
10
3.22385
20
-3.57708
11
3.22371
21
-3.57418
0
LINE
8
BLACK
6
CONTINUOUS
10
3.22371
20
-3.57418
11
3.2237
21
-3.57413
0
LINE
8
BLACK
6
CONTINUOUS
10
3.2237
20
-3.57413
11
3.2236
21
-3.57132
0
LINE
8
BLACK
6
CONTINUOUS
10
3.2236
20
-3.57132
11
3.22363
21
-3.57049
0
LINE
8
BLACK
6
CONTINUOUS
10
3.22363
20
-3.57049
11
3.22405
21
-3.56731
0
LINE
8
BLACK
6
CONTINUOUS
10
3.22405
20
-3.56731
11
3.22407
21
-3.56715
0
LINE
8
BLACK
6
CONTINUOUS
10
3.22407
20
-3.56715
11
3.22453
21
-3.56436
0
LINE
8
BLACK
6
CONTINUOUS
10
3.22453
20
-3.56436
11
3.2247
21
-3.56366
0
LINE
8
BLACK
6
CONTINUOUS
10
3.2247
20
-3.56366
11
3.22567
21
-3.56062
0
LINE
8
BLACK
6
CONTINUOUS
10
3.22567
20
-3.56062
11
3.22576
21
-3.56035
0
LINE
8
BLACK
6
CONTINUOUS
10
3.22576
20
-3.56035
11
3.22677
21
-3.55772
0
LINE
8
BLACK
6
CONTINUOUS
10
3.22677
20
-3.55772
11
3.22702
21
-3.55716
0
LINE
8
BLACK
6
CONTINUOUS
10
3.22702
20
-3.55716
11
3.22852
21
-3.55434
0
LINE
8
BLACK
6
CONTINUOUS
10
3.22852
20
-3.55434
11
3.22871
21
-3.554
0
LINE
8
BLACK
6
CONTINUOUS
10
3.22871
20
-3.554
11
3.23023
21
-3.55162
0
LINE
8
BLACK
6
CONTINUOUS
10
3.23023
20
-3.55162
11
3.23052
21
-3.55121
0
LINE
8
BLACK
6
CONTINUOUS
10
3.23052
20
-3.55121
11
3.23249
21
-3.5487
0
LINE
8
BLACK
6
CONTINUOUS
10
3.23249
20
-3.5487
11
3.23282
21
-3.54832
0
LINE
8
BLACK
6
CONTINUOUS
10
3.23282
20
-3.54832
11
3.23478
21
-3.54629
0
LINE
8
BLACK
6
CONTINUOUS
10
3.23478
20
-3.54629
11
3.23506
21
-3.54602
0
LINE
8
BLACK
6
CONTINUOUS
10
3.23506
20
-3.54602
11
3.23745
21
-3.54391
0
LINE
8
BLACK
6
CONTINUOUS
10
3.23745
20
-3.54391
11
3.23794
21
-3.54353
0
LINE
8
BLACK
6
CONTINUOUS
10
3.23794
20
-3.54353
11
3.24026
21
-3.54193
0
LINE
8
BLACK
6
CONTINUOUS
10
3.24026
20
-3.54193
11
3.24049
21
-3.54178
0
LINE
8
BLACK
6
CONTINUOUS
10
3.24049
20
-3.54178
11
3.24323
21
-3.54012
0
LINE
8
BLACK
6
CONTINUOUS
10
3.24323
20
-3.54012
11
3.24387
21
-3.5398
0
LINE
8
BLACK
6
CONTINUOUS
10
3.24387
20
-3.5398
11
3.24647
21
-3.5387
0
LINE
8
BLACK
6
CONTINUOUS
10
3.24647
20
-3.5387
11
3.24662
21
-3.53864
0
LINE
8
BLACK
6
CONTINUOUS
10
3.24662
20
-3.53864
11
3.24962
21
-3.53749
0
LINE
8
BLACK
6
CONTINUOUS
10
3.24962
20
-3.53749
11
3.25042
21
-3.53726
0
LINE
8
BLACK
6
CONTINUOUS
10
3.25042
20
-3.53726
11
3.25316
21
-3.53671
0
LINE
8
BLACK
6
CONTINUOUS
10
3.25316
20
-3.53671
11
3.25321
21
-3.5367
0
LINE
8
BLACK
6
CONTINUOUS
10
3.25321
20
-3.5367
11
3.25656
21
-3.53606
0
LINE
8
BLACK
6
CONTINUOUS
10
3.25656
20
-3.53606
11
3.25665
21
-3.53605
0
LINE
8
BLACK
6
CONTINUOUS
10
3.25665
20
-3.53605
11
3.25665
21
-3.53605
0
LINE
8
BLACK
6
CONTINUOUS
10
3.25665
20
-3.53605
11
3.25665
21
-3.53605
0
LINE
8
BLACK
6
CONTINUOUS
10
3.25665
20
-3.53605
11
3.25675
21
-3.53603
0
LINE
8
BLACK
6
CONTINUOUS
10
3.25675
20
-3.53603
11
3.56236
21
-3.49038
0
LINE
8
BLACK
6
CONTINUOUS
10
3.56236
20
-3.49038
11
3.56274
21
-3.49036
0
LINE
8
BLACK
6
CONTINUOUS
10
3.56274
20
-3.49036
11
3.56276
21
-3.49048
0
LINE
8
BLACK
6
CONTINUOUS
10
3.56276
20
-3.49048
11
3.56338
21
-3.49033
0
LINE
8
BLACK
6
CONTINUOUS
10
3.56338
20
-3.49033
11
3.5634
21
-3.49033
0
LINE
8
BLACK
6
CONTINUOUS
10
3.5634
20
-3.49033
11
3.56448
21
-3.49008
0
LINE
8
BLACK
6
CONTINUOUS
10
3.56448
20
-3.49008
11
3.56926
21
-3.48897
0
LINE
8
BLACK
6
CONTINUOUS
10
3.56926
20
-3.48897
11
3.56926
21
-3.48897
0
LINE
8
BLACK
6
CONTINUOUS
10
3.56926
20
-3.48897
11
3.56947
21
-3.48893
0
LINE
8
BLACK
6
CONTINUOUS
10
3.56947
20
-3.48893
11
3.56967
21
-3.48884
0
LINE
8
BLACK
6
CONTINUOUS
10
3.56967
20
-3.48884
11
3.56967
21
-3.48884
0
LINE
8
BLACK
6
CONTINUOUS
10
3.56967
20
-3.48884
11
3.57562
21
-3.48632
0
LINE
8
BLACK
6
CONTINUOUS
10
3.57562
20
-3.48632
11
3.57562
21
-3.48632
0
LINE
8
BLACK
6
CONTINUOUS
10
3.57562
20
-3.48632
11
3.57582
21
-3.48623
0
LINE
8
BLACK
6
CONTINUOUS
10
3.57582
20
-3.48623
11
3.576
21
-3.48611
0
LINE
8
BLACK
6
CONTINUOUS
10
3.576
20
-3.48611
11
3.576
21
-3.48611
0
LINE
8
BLACK
6
CONTINUOUS
10
3.576
20
-3.48611
11
3.58142
21
-3.48259
0
LINE
8
BLACK
6
CONTINUOUS
10
3.58142
20
-3.48259
11
3.58161
21
-3.48247
0
LINE
8
BLACK
6
CONTINUOUS
10
3.58161
20
-3.48247
11
3.58176
21
-3.48233
0
LINE
8
BLACK
6
CONTINUOUS
10
3.58176
20
-3.48233
11
3.58176
21
-3.48233
0
LINE
8
BLACK
6
CONTINUOUS
10
3.58176
20
-3.48233
11
3.58428
21
-3.47998
0
LINE
8
BLACK
6
CONTINUOUS
10
3.58428
20
-3.47998
11
3.58665
21
-3.47777
0
LINE
8
BLACK
6
CONTINUOUS
10
3.58665
20
-3.47777
11
3.5908
21
-3.47226
0
LINE
8
BLACK
6
CONTINUOUS
10
3.5908
20
-3.47226
11
3.59393
21
-3.46612
0
LINE
8
BLACK
6
CONTINUOUS
10
3.59393
20
-3.46612
11
3.5945
21
-3.46425
0
LINE
8
BLACK
6
CONTINUOUS
10
3.5945
20
-3.46425
11
3.59588
21
-3.45973
0
LINE
8
BLACK
6
CONTINUOUS
10
3.59588
20
-3.45973
11
3.59588
21
-3.45973
0
LINE
8
BLACK
6
CONTINUOUS
10
3.59588
20
-3.45973
11
3.59595
21
-3.45952
0
LINE
8
BLACK
6
CONTINUOUS
10
3.59595
20
-3.45952
11
3.59679
21
-3.45268
0
LINE
8
BLACK
6
CONTINUOUS
10
3.59679
20
-3.45268
11
3.59642
21
-3.44579
0
LINE
8
BLACK
6
CONTINUOUS
10
3.59642
20
-3.44579
11
3.5963
21
-3.44581
0
LINE
8
BLACK
6
CONTINUOUS
10
3.5963
20
-3.44581
11
3.59624
21
-3.44559
0
LINE
8
BLACK
6
CONTINUOUS
10
3.59624
20
-3.44559
11
3.53384
21
-3.00158
0
LINE
8
BLACK
6
CONTINUOUS
10
3.53384
20
-3.00158
11
3.5338
21
-3.00115
0
LINE
8
BLACK
6
CONTINUOUS
10
3.5338
20
-3.00115
11
3.53363
21
-2.99791
0
LINE
8
BLACK
6
CONTINUOUS
10
3.53363
20
-2.99791
11
3.53363
21
-2.99785
0
LINE
8
BLACK
6
CONTINUOUS
10
3.53363
20
-2.99785
11
3.5335
21
-2.99469
0
LINE
8
BLACK
6
CONTINUOUS
10
3.5335
20
-2.99469
11
3.53353
21
-2.99388
0
LINE
8
BLACK
6
CONTINUOUS
10
3.53353
20
-2.99388
11
3.53393
21
-2.99065
0
LINE
8
BLACK
6
CONTINUOUS
10
3.53393
20
-2.99065
11
3.53395
21
-2.99049
0
LINE
8
BLACK
6
CONTINUOUS
10
3.53395
20
-2.99049
11
3.53443
21
-2.98742
0
LINE
8
BLACK
6
CONTINUOUS
10
3.53443
20
-2.98742
11
3.53459
21
-2.98674
0
LINE
8
BLACK
6
CONTINUOUS
10
3.53459
20
-2.98674
11
3.53555
21
-2.98359
0
LINE
8
BLACK
6
CONTINUOUS
10
3.53555
20
-2.98359
11
3.53563
21
-2.98334
0
LINE
8
BLACK
6
CONTINUOUS
10
3.53563
20
-2.98334
11
3.53669
21
-2.98045
0
LINE
8
BLACK
6
CONTINUOUS
10
3.53669
20
-2.98045
11
3.53693
21
-2.97991
0
LINE
8
BLACK
6
CONTINUOUS
10
3.53693
20
-2.97991
11
3.53842
21
-2.97697
0
LINE
8
BLACK
6
CONTINUOUS
10
3.53842
20
-2.97697
11
3.53861
21
-2.97664
0
LINE
8
BLACK
6
CONTINUOUS
10
3.53861
20
-2.97664
11
3.5402
21
-2.97403
0
LINE
8
BLACK
6
CONTINUOUS
10
3.5402
20
-2.97403
11
3.54048
21
-2.97363
0
LINE
8
BLACK
6
CONTINUOUS
10
3.54048
20
-2.97363
11
3.5413
21
-2.97253
0
LINE
8
BLACK
6
CONTINUOUS
10
3.5413
20
-2.97253
11
3.54246
21
-2.97099
0
LINE
8
BLACK
6
CONTINUOUS
10
3.54246
20
-2.97099
11
3.54277
21
-2.97062
0
LINE
8
BLACK
6
CONTINUOUS
10
3.54277
20
-2.97062
11
3.54485
21
-2.96836
0
LINE
8
BLACK
6
CONTINUOUS
10
3.54485
20
-2.96836
11
3.54511
21
-2.9681
0
LINE
8
BLACK
6
CONTINUOUS
10
3.54511
20
-2.9681
11
3.54752
21
-2.96585
0
LINE
8
BLACK
6
CONTINUOUS
10
3.54752
20
-2.96585
11
3.54798
21
-2.96547
0
LINE
8
BLACK
6
CONTINUOUS
10
3.54798
20
-2.96547
11
3.55046
21
-2.96366
0
LINE
8
BLACK
6
CONTINUOUS
10
3.55046
20
-2.96366
11
3.55068
21
-2.96351
0
LINE
8
BLACK
6
CONTINUOUS
10
3.55068
20
-2.96351
11
3.55344
21
-2.96172
0
LINE
8
BLACK
6
CONTINUOUS
10
3.55344
20
-2.96172
11
3.55406
21
-2.96138
0
LINE
8
BLACK
6
CONTINUOUS
10
3.55406
20
-2.96138
11
3.55687
21
-2.96007
0
LINE
8
BLACK
6
CONTINUOUS
10
3.55687
20
-2.96007
11
3.55702
21
-2.96
0
LINE
8
BLACK
6
CONTINUOUS
10
3.55702
20
-2.96
11
3.55823
21
-2.95949
0
LINE
8
BLACK
6
CONTINUOUS
10
3.55823
20
-2.95949
11
3.56002
21
-2.95873
0
LINE
8
BLACK
6
CONTINUOUS
10
3.56002
20
-2.95873
11
3.56079
21
-2.95848
0
LINE
8
BLACK
6
CONTINUOUS
10
3.56079
20
-2.95848
11
3.56399
21
-2.9577
0
LINE
8
BLACK
6
CONTINUOUS
10
3.56399
20
-2.9577
11
3.56404
21
-2.95769
0
LINE
8
BLACK
6
CONTINUOUS
10
3.56404
20
-2.95769
11
3.56667
21
-2.95708
0
LINE
8
BLACK
6
CONTINUOUS
10
3.56667
20
-2.95708
11
3.56705
21
-2.95699
0
LINE
8
BLACK
6
CONTINUOUS
10
3.56705
20
-2.95699
11
3.56747
21
-2.95691
0
LINE
8
BLACK
6
CONTINUOUS
10
3.56747
20
-2.95691
11
3.80866
21
-2.92302
0
LINE
8
BLACK
6
CONTINUOUS
10
3.80866
20
-2.92302
11
3.80901
21
-2.923
0
LINE
8
BLACK
6
CONTINUOUS
10
3.80901
20
-2.923
11
3.80903
21
-2.92312
0
LINE
8
BLACK
6
CONTINUOUS
10
3.80903
20
-2.92312
11
3.80965
21
-2.92298
0
LINE
8
BLACK
6
CONTINUOUS
10
3.80965
20
-2.92298
11
3.80965
21
-2.92298
0
LINE
8
BLACK
6
CONTINUOUS
10
3.80965
20
-2.92298
11
3.8113
21
-2.9226
0
LINE
8
BLACK
6
CONTINUOUS
10
3.8113
20
-2.9226
11
3.81575
21
-2.92157
0
LINE
8
BLACK
6
CONTINUOUS
10
3.81575
20
-2.92157
11
3.81712
21
-2.92099
0
LINE
8
BLACK
6
CONTINUOUS
10
3.81712
20
-2.92099
11
3.82189
21
-2.91896
0
LINE
8
BLACK
6
CONTINUOUS
10
3.82189
20
-2.91896
11
3.82189
21
-2.91896
0
LINE
8
BLACK
6
CONTINUOUS
10
3.82189
20
-2.91896
11
3.82209
21
-2.91888
0
LINE
8
BLACK
6
CONTINUOUS
10
3.82209
20
-2.91888
11
3.82788
21
-2.91512
0
LINE
8
BLACK
6
CONTINUOUS
10
3.82788
20
-2.91512
11
3.82804
21
-2.91497
0
LINE
8
BLACK
6
CONTINUOUS
10
3.82804
20
-2.91497
11
3.82804
21
-2.91497
0
LINE
8
BLACK
6
CONTINUOUS
10
3.82804
20
-2.91497
11
3.83276
21
-2.91056
0
LINE
8
BLACK
6
CONTINUOUS
10
3.83276
20
-2.91056
11
3.83292
21
-2.91042
0
LINE
8
BLACK
6
CONTINUOUS
10
3.83292
20
-2.91042
11
3.83305
21
-2.91024
0
LINE
8
BLACK
6
CONTINUOUS
10
3.83305
20
-2.91024
11
3.83305
21
-2.91024
0
LINE
8
BLACK
6
CONTINUOUS
10
3.83305
20
-2.91024
11
3.83694
21
-2.90508
0
LINE
8
BLACK
6
CONTINUOUS
10
3.83694
20
-2.90508
11
3.83707
21
-2.90491
0
LINE
8
BLACK
6
CONTINUOUS
10
3.83707
20
-2.90491
11
3.8402
21
-2.89876
0
LINE
8
BLACK
6
CONTINUOUS
10
3.8402
20
-2.89876
11
3.84222
21
-2.89217
0
LINE
8
BLACK
6
CONTINUOUS
10
3.84222
20
-2.89217
11
3.84306
21
-2.88532
0
LINE
8
BLACK
6
CONTINUOUS
10
3.84306
20
-2.88532
11
3.8427
21
-2.87844
0
LINE
8
BLACK
6
CONTINUOUS
10
3.8427
20
-2.87844
11
3.84257
21
-2.87846
0
LINE
8
BLACK
6
CONTINUOUS
10
3.84257
20
-2.87846
11
3.84252
21
-2.87824
0
LINE
8
BLACK
6
CONTINUOUS
10
3.84252
20
-2.87824
11
3.80915
21
-2.64085
0
LINE
8
BLACK
6
CONTINUOUS
10
3.80915
20
-2.64085
11
3.80911
21
-2.64042
0
LINE
8
BLACK
6
CONTINUOUS
10
3.80911
20
-2.64042
11
3.80893
21
-2.63696
0
LINE
8
BLACK
6
CONTINUOUS
10
3.80893
20
-2.63696
11
3.80893
21
-2.63691
0
LINE
8
BLACK
6
CONTINUOUS
10
3.80893
20
-2.63691
11
3.80878
21
-2.63327
0
LINE
8
BLACK
6
CONTINUOUS
10
3.80878
20
-2.63327
11
3.80881
21
-2.63246
0
LINE
8
BLACK
6
CONTINUOUS
10
3.80881
20
-2.63246
11
3.80926
21
-2.62879
0
LINE
8
BLACK
6
CONTINUOUS
10
3.80926
20
-2.62879
11
3.80928
21
-2.62863
0
LINE
8
BLACK
6
CONTINUOUS
10
3.80928
20
-2.62863
11
3.8098
21
-2.62528
0
LINE
8
BLACK
6
CONTINUOUS
10
3.8098
20
-2.62528
11
3.80996
21
-2.6246
0
LINE
8
BLACK
6
CONTINUOUS
10
3.80996
20
-2.6246
11
3.81105
21
-2.62105
0
LINE
8
BLACK
6
CONTINUOUS
10
3.81105
20
-2.62105
11
3.81113
21
-2.62079
0
LINE
8
BLACK
6
CONTINUOUS
10
3.81113
20
-2.62079
11
3.81229
21
-2.61763
0
LINE
8
BLACK
6
CONTINUOUS
10
3.81229
20
-2.61763
11
3.81253
21
-2.61708
0
LINE
8
BLACK
6
CONTINUOUS
10
3.81253
20
-2.61708
11
3.81422
21
-2.61377
0
LINE
8
BLACK
6
CONTINUOUS
10
3.81422
20
-2.61377
11
3.8144
21
-2.61344
0
LINE
8
BLACK
6
CONTINUOUS
10
3.8144
20
-2.61344
11
3.81616
21
-2.61057
0
LINE
8
BLACK
6
CONTINUOUS
10
3.81616
20
-2.61057
11
3.81643
21
-2.61016
0
LINE
8
BLACK
6
CONTINUOUS
10
3.81643
20
-2.61016
11
3.81867
21
-2.6072
0
LINE
8
BLACK
6
CONTINUOUS
10
3.81867
20
-2.6072
11
3.81898
21
-2.60682
0
LINE
8
BLACK
6
CONTINUOUS
10
3.81898
20
-2.60682
11
3.82126
21
-2.60434
0
LINE
8
BLACK
6
CONTINUOUS
10
3.82126
20
-2.60434
11
3.82152
21
-2.60408
0
LINE
8
BLACK
6
CONTINUOUS
10
3.82152
20
-2.60408
11
3.82424
21
-2.60154
0
LINE
8
BLACK
6
CONTINUOUS
10
3.82424
20
-2.60154
11
3.8247
21
-2.60116
0
LINE
8
BLACK
6
CONTINUOUS
10
3.8247
20
-2.60116
11
3.82742
21
-2.59918
0
LINE
8
BLACK
6
CONTINUOUS
10
3.82742
20
-2.59918
11
3.82765
21
-2.59902
0
LINE
8
BLACK
6
CONTINUOUS
10
3.82765
20
-2.59902
11
3.83076
21
-2.597
0
LINE
8
BLACK
6
CONTINUOUS
10
3.83076
20
-2.597
11
3.83137
21
-2.59666
0
LINE
8
BLACK
6
CONTINUOUS
10
3.83137
20
-2.59666
11
3.83445
21
-2.59524
0
LINE
8
BLACK
6
CONTINUOUS
10
3.83445
20
-2.59524
11
3.8346
21
-2.59517
0
LINE
8
BLACK
6
CONTINUOUS
10
3.8346
20
-2.59517
11
3.838
21
-2.59373
0
LINE
8
BLACK
6
CONTINUOUS
10
3.838
20
-2.59373
11
3.83877
21
-2.59347
0
LINE
8
BLACK
6
CONTINUOUS
10
3.83877
20
-2.59347
11
3.839
21
-2.59341
0
LINE
8
BLACK
6
CONTINUOUS
10
3.839
20
-2.59341
11
3.84215
21
-2.59265
0
LINE
8
BLACK
6
CONTINUOUS
10
3.84215
20
-2.59265
11
3.8422
21
-2.59264
0
LINE
8
BLACK
6
CONTINUOUS
10
3.8422
20
-2.59264
11
3.84577
21
-2.59181
0
LINE
8
BLACK
6
CONTINUOUS
10
3.84577
20
-2.59181
11
3.8462
21
-2.59174
0
LINE
8
BLACK
6
CONTINUOUS
10
3.8462
20
-2.59174
11
4.5477
21
-2.49314
0
LINE
8
BLACK
6
CONTINUOUS
10
4.5477
20
-2.49314
11
4.54771
21
-2.49315
0
LINE
8
BLACK
6
CONTINUOUS
10
4.54771
20
-2.49315
11
4.54772
21
-2.49314
0
LINE
8
BLACK
6
CONTINUOUS
10
4.54772
20
-2.49314
11
4.54858
21
-2.49302
0
LINE
8
BLACK
6
CONTINUOUS
10
4.54858
20
-2.49302
11
4.56421
21
-2.49081
0
LINE
8
BLACK
6
CONTINUOUS
10
4.56421
20
-2.49081
11
4.57967
21
-2.48866
0
LINE
8
BLACK
6
CONTINUOUS
10
4.57967
20
-2.48866
11
4.60172
21
-2.4856
0
LINE
8
BLACK
6
CONTINUOUS
10
4.60172
20
-2.4856
11
4.60178
21
-2.48559
0
LINE
8
BLACK
6
CONTINUOUS
10
4.60178
20
-2.48559
11
4.61311
21
-2.48415
0
LINE
8
BLACK
6
CONTINUOUS
10
4.61311
20
-2.48415
11
4.62756
21
-2.48231
0
LINE
8
BLACK
6
CONTINUOUS
10
4.62756
20
-2.48231
11
4.62759
21
-2.48231
0
LINE
8
BLACK
6
CONTINUOUS
10
4.62759
20
-2.48231
11
4.65911
21
-2.47854
0
LINE
8
BLACK
6
CONTINUOUS
10
4.65911
20
-2.47854
11
4.65914
21
-2.47853
0
LINE
8
BLACK
6
CONTINUOUS
10
4.65914
20
-2.47853
11
4.66429
21
-2.47795
0
LINE
8
BLACK
6
CONTINUOUS
10
4.66429
20
-2.47795
11
4.68498
21
-2.47562
0
LINE
8
BLACK
6
CONTINUOUS
10
4.68498
20
-2.47562
11
4.68504
21
-2.47562
0
LINE
8
BLACK
6
CONTINUOUS
10
4.68504
20
-2.47562
11
4.7227
21
-2.47183
0
LINE
8
BLACK
6
CONTINUOUS
10
4.7227
20
-2.47183
11
4.72271
21
-2.47182
0
LINE
8
BLACK
6
CONTINUOUS
10
4.72271
20
-2.47182
11
4.73465
21
-2.47065
0
LINE
8
BLACK
6
CONTINUOUS
10
4.73465
20
-2.47065
11
4.73921
21
-2.4702
0
LINE
8
BLACK
6
CONTINUOUS
10
4.73921
20
-2.4702
11
4.73929
21
-2.4702
0
LINE
8
BLACK
6
CONTINUOUS
10
4.73929
20
-2.4702
11
4.73929
21
-2.4702
0
LINE
8
BLACK
6
CONTINUOUS
10
4.73929
20
-2.4702
11
4.7393
21
-2.4702
0
LINE
8
BLACK
6
CONTINUOUS
10
4.7393
20
-2.4702
11
4.73937
21
-2.47019
0
LINE
8
BLACK
6
CONTINUOUS
10
4.73937
20
-2.47019
11
5.39159
21
-2.42747
0
LINE
8
BLACK
6
CONTINUOUS
10
5.39159
20
-2.42747
11
5.3922
21
-2.42749
0
LINE
8
BLACK
6
CONTINUOUS
10
5.3922
20
-2.42749
11
5.39221
21
-2.42761
0
LINE
8
BLACK
6
CONTINUOUS
10
5.39221
20
-2.42761
11
5.40402
21
-2.42606
0
LINE
8
BLACK
6
CONTINUOUS
10
5.40402
20
-2.42606
11
5.40416
21
-2.42603
0
LINE
8
BLACK
6
CONTINUOUS
10
5.40416
20
-2.42603
11
5.40416
21
-2.42603
0
LINE
8
BLACK
6
CONTINUOUS
10
5.40416
20
-2.42603
11
5.41541
21
-2.42314
0
LINE
8
BLACK
6
CONTINUOUS
10
5.41541
20
-2.42314
11
5.41541
21
-2.42314
0
LINE
8
BLACK
6
CONTINUOUS
10
5.41541
20
-2.42314
11
5.41556
21
-2.4231
0
LINE
8
BLACK
6
CONTINUOUS
10
5.41556
20
-2.4231
11
5.42665
21
-2.41877
0
LINE
8
BLACK
6
CONTINUOUS
10
5.42665
20
-2.41877
11
5.42678
21
-2.4187
0
LINE
8
BLACK
6
CONTINUOUS
10
5.42678
20
-2.4187
11
5.42678
21
-2.4187
0
LINE
8
BLACK
6
CONTINUOUS
10
5.42678
20
-2.4187
11
5.43702
21
-2.41321
0
LINE
8
BLACK
6
CONTINUOUS
10
5.43702
20
-2.41321
11
5.43715
21
-2.41314
0
LINE
8
BLACK
6
CONTINUOUS
10
5.43715
20
-2.41314
11
5.44689
21
-2.40628
0
LINE
8
BLACK
6
CONTINUOUS
10
5.44689
20
-2.40628
11
5.45573
21
-2.3983
0
LINE
8
BLACK
6
CONTINUOUS
10
5.45573
20
-2.3983
11
5.45589
21
-2.39812
0
LINE
8
BLACK
6
CONTINUOUS
10
5.45589
20
-2.39812
11
5.45942
21
-2.39405
0
LINE
8
BLACK
6
CONTINUOUS
10
5.45942
20
-2.39405
11
5.46354
21
-2.38931
0
LINE
8
BLACK
6
CONTINUOUS
10
5.46354
20
-2.38931
11
5.46363
21
-2.38919
0
LINE
8
BLACK
6
CONTINUOUS
10
5.46363
20
-2.38919
11
5.46363
21
-2.38918
0
LINE
8
BLACK
6
CONTINUOUS
10
5.46363
20
-2.38918
11
5.47013
21
-2.37957
0
LINE
8
BLACK
6
CONTINUOUS
10
5.47013
20
-2.37957
11
5.47022
21
-2.37944
0
LINE
8
BLACK
6
CONTINUOUS
10
5.47022
20
-2.37944
11
5.47565
21
-2.36884
0
LINE
8
BLACK
6
CONTINUOUS
10
5.47565
20
-2.36884
11
5.47977
21
-2.35767
0
LINE
8
BLACK
6
CONTINUOUS
10
5.47977
20
-2.35767
11
5.48252
21
-2.34608
0
LINE
8
BLACK
6
CONTINUOUS
10
5.48252
20
-2.34608
11
5.48384
21
-2.33424
0
LINE
8
BLACK
6
CONTINUOUS
10
5.48384
20
-2.33424
11
5.48373
21
-2.32233
0
LINE
8
BLACK
6
CONTINUOUS
10
5.48373
20
-2.32233
11
5.48371
21
-2.32233
0
LINE
8
BLACK
6
CONTINUOUS
10
5.48371
20
-2.32233
11
5.48362
21
-2.32148
0
LINE
8
BLACK
6
CONTINUOUS
10
5.48362
20
-2.32148
11
5.48392
21
-2.31753
0
LINE
8
BLACK
6
CONTINUOUS
10
5.48392
20
-2.31753
11
5.48392
21
-2.31749
0
LINE
8
BLACK
6
CONTINUOUS
10
5.48392
20
-2.31749
11
5.48425
21
-2.31365
0
LINE
8
BLACK
6
CONTINUOUS
10
5.48425
20
-2.31365
11
5.48436
21
-2.31295
0
LINE
8
BLACK
6
CONTINUOUS
10
5.48436
20
-2.31295
11
5.4854
21
-2.30844
0
LINE
8
BLACK
6
CONTINUOUS
10
5.4854
20
-2.30844
11
5.48543
21
-2.30832
0
LINE
8
BLACK
6
CONTINUOUS
10
5.48543
20
-2.30832
11
5.4864
21
-2.30453
0
LINE
8
BLACK
6
CONTINUOUS
10
5.4864
20
-2.30453
11
5.48659
21
-2.30394
0
LINE
8
BLACK
6
CONTINUOUS
10
5.48659
20
-2.30394
11
5.48668
21
-2.30373
0
LINE
8
BLACK
6
CONTINUOUS
10
5.48668
20
-2.30373
11
5.48828
21
-2.29967
0
LINE
8
BLACK
6
CONTINUOUS
10
5.48828
20
-2.29967
11
5.48836
21
-2.29948
0
LINE
8
BLACK
6
CONTINUOUS
10
5.48836
20
-2.29948
11
5.48997
21
-2.29587
0
LINE
8
BLACK
6
CONTINUOUS
10
5.48997
20
-2.29587
11
5.49022
21
-2.29539
0
LINE
8
BLACK
6
CONTINUOUS
10
5.49022
20
-2.29539
11
5.49252
21
-2.29144
0
LINE
8
BLACK
6
CONTINUOUS
10
5.49252
20
-2.29144
11
5.49267
21
-2.2912
0
LINE
8
BLACK
6
CONTINUOUS
10
5.49267
20
-2.2912
11
5.49346
21
-2.29002
0
LINE
8
BLACK
6
CONTINUOUS
10
5.49346
20
-2.29002
11
5.49487
21
-2.28789
0
LINE
8
BLACK
6
CONTINUOUS
10
5.49487
20
-2.28789
11
5.49514
21
-2.28752
0
LINE
8
BLACK
6
CONTINUOUS
10
5.49514
20
-2.28752
11
5.498
21
-2.28397
0
LINE
8
BLACK
6
CONTINUOUS
10
5.498
20
-2.28397
11
5.49825
21
-2.28369
0
LINE
8
BLACK
6
CONTINUOUS
10
5.49825
20
-2.28369
11
5.49849
21
-2.28344
0
LINE
8
BLACK
6
CONTINUOUS
10
5.49849
20
-2.28344
11
5.50097
21
-2.28079
0
LINE
8
BLACK
6
CONTINUOUS
10
5.50097
20
-2.28079
11
5.50123
21
-2.28053
0
LINE
8
BLACK
6
CONTINUOUS
10
5.50123
20
-2.28053
11
5.5046
21
-2.27745
0
LINE
8
BLACK
6
CONTINUOUS
10
5.5046
20
-2.27745
11
5.50494
21
-2.27716
0
LINE
8
BLACK
6
CONTINUOUS
10
5.50494
20
-2.27716
11
5.50811
21
-2.27475
0
LINE
8
BLACK
6
CONTINUOUS
10
5.50811
20
-2.27475
11
5.50834
21
-2.27459
0
LINE
8
BLACK
6
CONTINUOUS
10
5.50834
20
-2.27459
11
5.51213
21
-2.27204
0
LINE
8
BLACK
6
CONTINUOUS
10
5.51213
20
-2.27204
11
5.5126
21
-2.27176
0
LINE
8
BLACK
6
CONTINUOUS
10
5.5126
20
-2.27176
11
5.51408
21
-2.27099
0
LINE
8
BLACK
6
CONTINUOUS
10
5.51408
20
-2.27099
11
5.5161
21
-2.26993
0
LINE
8
BLACK
6
CONTINUOUS
10
5.5161
20
-2.26993
11
5.51629
21
-2.26984
0
LINE
8
BLACK
6
CONTINUOUS
10
5.51629
20
-2.26984
11
5.52043
21
-2.26788
0
LINE
8
BLACK
6
CONTINUOUS
10
5.52043
20
-2.26788
11
5.52101
21
-2.26765
0
LINE
8
BLACK
6
CONTINUOUS
10
5.52101
20
-2.26765
11
5.52473
21
-2.26643
0
LINE
8
BLACK
6
CONTINUOUS
10
5.52473
20
-2.26643
11
5.52485
21
-2.2664
0
LINE
8
BLACK
6
CONTINUOUS
10
5.52485
20
-2.2664
11
5.52929
21
-2.26507
0
LINE
8
BLACK
6
CONTINUOUS
10
5.52929
20
-2.26507
11
5.52998
21
-2.26492
0
LINE
8
BLACK
6
CONTINUOUS
10
5.52998
20
-2.26492
11
5.53035
21
-2.26486
0
LINE
8
BLACK
6
CONTINUOUS
10
5.53035
20
-2.26486
11
5.53364
21
-2.26437
0
LINE
8
BLACK
6
CONTINUOUS
10
5.53364
20
-2.26437
11
5.53367
21
-2.26437
0
LINE
8
BLACK
6
CONTINUOUS
10
5.53367
20
-2.26437
11
5.53828
21
-2.26372
0
LINE
8
BLACK
6
CONTINUOUS
10
5.53828
20
-2.26372
11
5.53898
21
-2.26367
0
LINE
8
BLACK
6
CONTINUOUS
10
5.53898
20
-2.26367
11
5.9166
21
-2.26406
  0
ENDSEC
  0
EOF
